<svg width="57" height="13" viewBox="0 0 57 13" fill="none" xmlns="http://www.w3.org/2000/svg">
<path d="M10.9432 4.14773H9.17045C9.10227 3.76894 8.97538 3.43561 8.78977 3.14773C8.60417 2.85985 8.37689 2.61553 8.10795 2.41477C7.83902 2.21401 7.53788 2.0625 7.20455 1.96023C6.875 1.85795 6.52462 1.80682 6.15341 1.80682C5.48295 1.80682 4.88258 1.97538 4.35227 2.3125C3.82576 2.64962 3.40909 3.14394 3.10227 3.79545C2.79924 4.44697 2.64773 5.24242 2.64773 6.18182C2.64773 7.12879 2.79924 7.92803 3.10227 8.57955C3.40909 9.23106 3.82765 9.72348 4.35795 10.0568C4.88826 10.3902 5.48485 10.5568 6.14773 10.5568C6.51515 10.5568 6.86364 10.5076 7.19318 10.4091C7.52652 10.3068 7.82765 10.1572 8.09659 9.96023C8.36553 9.76326 8.5928 9.52273 8.77841 9.23864C8.9678 8.95076 9.09848 8.62121 9.17045 8.25L10.9432 8.25568C10.8485 8.82765 10.6648 9.35417 10.392 9.83523C10.1231 10.3125 9.77652 10.7254 9.35227 11.0739C8.93182 11.4186 8.45076 11.6856 7.90909 11.875C7.36742 12.0644 6.77652 12.1591 6.13636 12.1591C5.12879 12.1591 4.23106 11.9205 3.44318 11.4432C2.6553 10.9621 2.03409 10.2746 1.57955 9.38068C1.12879 8.48674 0.903409 7.42045 0.903409 6.18182C0.903409 4.93939 1.13068 3.87311 1.58523 2.98295C2.03977 2.08901 2.66098 1.40341 3.44886 0.926136C4.23674 0.445075 5.13258 0.204545 6.13636 0.204545C6.75379 0.204545 7.32955 0.29356 7.86364 0.471591C8.40152 0.645833 8.88447 0.903409 9.3125 1.24432C9.74053 1.58144 10.0947 1.99432 10.375 2.48295C10.6553 2.9678 10.8447 3.52273 10.9432 4.14773ZM14.9089 12H13.0452L17.2327 0.363636H19.2611L23.4486 12H21.585L18.2952 2.47727H18.2043L14.9089 12ZM15.2214 7.44318H21.2668V8.92045H15.2214V7.44318ZM32.3419 3.42045C32.2813 2.88258 32.0313 2.46591 31.5919 2.17045C31.1525 1.87121 30.5995 1.72159 29.9328 1.72159C29.4555 1.72159 29.0426 1.79735 28.6941 1.94886C28.3457 2.09659 28.0748 2.30114 27.8816 2.5625C27.6923 2.82008 27.5976 3.11364 27.5976 3.44318C27.5976 3.7197 27.662 3.95833 27.7907 4.15909C27.9233 4.35985 28.0957 4.52841 28.3078 4.66477C28.5237 4.79735 28.7548 4.90909 29.001 5C29.2472 5.08712 29.4839 5.15909 29.7112 5.21591L30.8476 5.51136C31.2188 5.60227 31.5995 5.72538 31.9896 5.88068C32.3798 6.03598 32.7415 6.24053 33.0748 6.49432C33.4082 6.74811 33.6771 7.0625 33.8816 7.4375C34.09 7.8125 34.1941 8.26136 34.1941 8.78409C34.1941 9.44318 34.0237 10.0284 33.6828 10.5398C33.3457 11.0511 32.8551 11.4545 32.2112 11.75C31.571 12.0455 30.7964 12.1932 29.8873 12.1932C29.0161 12.1932 28.2623 12.0549 27.626 11.7784C26.9896 11.5019 26.4915 11.1098 26.1316 10.6023C25.7718 10.0909 25.5729 9.48485 25.5351 8.78409H27.2964C27.3305 9.20455 27.4669 9.55492 27.7055 9.83523C27.9479 10.1117 28.2566 10.3182 28.6316 10.4545C29.0104 10.5871 29.4252 10.6534 29.876 10.6534C30.3722 10.6534 30.8135 10.5758 31.1998 10.4205C31.59 10.2614 31.8968 10.0417 32.1203 9.76136C32.3438 9.47727 32.4555 9.14583 32.4555 8.76705C32.4555 8.42235 32.357 8.14015 32.1601 7.92045C31.9669 7.70076 31.7036 7.51894 31.3703 7.375C31.0407 7.23106 30.6676 7.10417 30.251 6.99432L28.876 6.61932C27.9441 6.36553 27.2055 5.99242 26.6601 5.5C26.1184 5.00758 25.8476 4.35606 25.8476 3.54545C25.8476 2.875 26.0294 2.28977 26.393 1.78977C26.7566 1.28977 27.2491 0.901515 27.8703 0.625C28.4915 0.344697 29.1923 0.204545 29.9726 0.204545C30.7604 0.204545 31.4555 0.342803 32.0578 0.619318C32.6638 0.895833 33.1411 1.27652 33.4896 1.76136C33.8381 2.24242 34.0199 2.79545 34.0351 3.42045H32.3419ZM37.2522 12V0.363636H44.5476V1.875H39.0078V5.42045H44.1669V6.92614H39.0078V10.4886H44.6158V12H37.2522ZM54.1994 3.42045C54.1388 2.88258 53.8888 2.46591 53.4494 2.17045C53.01 1.87121 52.457 1.72159 51.7903 1.72159C51.313 1.72159 50.9001 1.79735 50.5516 1.94886C50.2032 2.09659 49.9323 2.30114 49.7391 2.5625C49.5498 2.82008 49.4551 3.11364 49.4551 3.44318C49.4551 3.7197 49.5195 3.95833 49.6482 4.15909C49.7808 4.35985 49.9532 4.52841 50.1653 4.66477C50.3812 4.79735 50.6123 4.90909 50.8585 5C51.1047 5.08712 51.3414 5.15909 51.5687 5.21591L52.7051 5.51136C53.0763 5.60227 53.457 5.72538 53.8471 5.88068C54.2373 6.03598 54.599 6.24053 54.9323 6.49432C55.2657 6.74811 55.5346 7.0625 55.7391 7.4375C55.9475 7.8125 56.0516 8.26136 56.0516 8.78409C56.0516 9.44318 55.8812 10.0284 55.5403 10.5398C55.2032 11.0511 54.7126 11.4545 54.0687 11.75C53.4285 12.0455 52.6539 12.1932 51.7448 12.1932C50.8736 12.1932 50.1198 12.0549 49.4835 11.7784C48.8471 11.5019 48.349 11.1098 47.9891 10.6023C47.6293 10.0909 47.4304 9.48485 47.3926 8.78409H49.1539C49.188 9.20455 49.3244 9.55492 49.563 9.83523C49.8054 10.1117 50.1141 10.3182 50.4891 10.4545C50.8679 10.5871 51.2827 10.6534 51.7335 10.6534C52.2297 10.6534 52.671 10.5758 53.0573 10.4205C53.4475 10.2614 53.7543 10.0417 53.9778 9.76136C54.2013 9.47727 54.313 9.14583 54.313 8.76705C54.313 8.42235 54.2145 8.14015 54.0176 7.92045C53.8244 7.70076 53.5611 7.51894 53.2278 7.375C52.8982 7.23106 52.5251 7.10417 52.1085 6.99432L50.7335 6.61932C49.8016 6.36553 49.063 5.99242 48.5176 5.5C47.9759 5.00758 47.7051 4.35606 47.7051 3.54545C47.7051 2.875 47.8869 2.28977 48.2505 1.78977C48.6141 1.28977 49.1066 0.901515 49.7278 0.625C50.349 0.344697 51.0498 0.204545 51.8301 0.204545C52.6179 0.204545 53.313 0.342803 53.9153 0.619318C54.5213 0.895833 54.9986 1.27652 55.3471 1.76136C55.6956 2.24242 55.8774 2.79545 55.8926 3.42045H54.1994Z" fill="white"/>
</svg>
