<svg width="82" height="13" viewBox="0 0 82 13" fill="none" xmlns="http://www.w3.org/2000/svg">
<path d="M10.9432 4.14773H9.17045C9.10227 3.76894 8.97538 3.43561 8.78977 3.14773C8.60417 2.85985 8.37689 2.61553 8.10795 2.41477C7.83902 2.21401 7.53788 2.0625 7.20455 1.96023C6.875 1.85795 6.52462 1.80682 6.15341 1.80682C5.48295 1.80682 4.88258 1.97538 4.35227 2.3125C3.82576 2.64962 3.40909 3.14394 3.10227 3.79545C2.79924 4.44697 2.64773 5.24242 2.64773 6.18182C2.64773 7.12879 2.79924 7.92803 3.10227 8.57955C3.40909 9.23106 3.82765 9.72348 4.35795 10.0568C4.88826 10.3902 5.48485 10.5568 6.14773 10.5568C6.51515 10.5568 6.86364 10.5076 7.19318 10.4091C7.52652 10.3068 7.82765 10.1572 8.09659 9.96023C8.36553 9.76326 8.5928 9.52273 8.77841 9.23864C8.9678 8.95076 9.09848 8.62121 9.17045 8.25L10.9432 8.25568C10.8485 8.82765 10.6648 9.35417 10.392 9.83523C10.1231 10.3125 9.77652 10.7254 9.35227 11.0739C8.93182 11.4186 8.45076 11.6856 7.90909 11.875C7.36742 12.0644 6.77652 12.1591 6.13636 12.1591C5.12879 12.1591 4.23106 11.9205 3.44318 11.4432C2.6553 10.9621 2.03409 10.2746 1.57955 9.38068C1.12879 8.48674 0.903409 7.42045 0.903409 6.18182C0.903409 4.93939 1.13068 3.87311 1.58523 2.98295C2.03977 2.08901 2.66098 1.40341 3.44886 0.926136C4.23674 0.445075 5.13258 0.204545 6.13636 0.204545C6.75379 0.204545 7.32955 0.29356 7.86364 0.471591C8.40152 0.645833 8.88447 0.903409 9.3125 1.24432C9.74053 1.58144 10.0947 1.99432 10.375 2.48295C10.6553 2.9678 10.8447 3.52273 10.9432 4.14773ZM24.112 6.18182C24.112 7.42424 23.8847 8.49242 23.4302 9.38636C22.9756 10.2765 22.3525 10.9621 21.5609 11.4432C20.773 11.9205 19.8771 12.1591 18.8734 12.1591C17.8658 12.1591 16.9662 11.9205 16.1745 11.4432C15.3866 10.9621 14.7654 10.2746 14.3109 9.38068C13.8563 8.48674 13.629 7.42045 13.629 6.18182C13.629 4.93939 13.8563 3.87311 14.3109 2.98295C14.7654 2.08901 15.3866 1.40341 16.1745 0.926136C16.9662 0.445075 17.8658 0.204545 18.8734 0.204545C19.8771 0.204545 20.773 0.445075 21.5609 0.926136C22.3525 1.40341 22.9756 2.08901 23.4302 2.98295C23.8847 3.87311 24.112 4.93939 24.112 6.18182ZM22.3734 6.18182C22.3734 5.23485 22.2199 4.4375 21.9131 3.78977C21.6101 3.13826 21.1934 2.64583 20.6631 2.3125C20.1366 1.97538 19.54 1.80682 18.8734 1.80682C18.2029 1.80682 17.6044 1.97538 17.0779 2.3125C16.5514 2.64583 16.1347 3.13826 15.8279 3.78977C15.5249 4.4375 15.3734 5.23485 15.3734 6.18182C15.3734 7.12879 15.5249 7.92803 15.8279 8.57955C16.1347 9.22727 16.5514 9.7197 17.0779 10.0568C17.6044 10.3902 18.2029 10.5568 18.8734 10.5568C19.54 10.5568 20.1366 10.3902 20.6631 10.0568C21.1934 9.7197 21.6101 9.22727 21.9131 8.57955C22.2199 7.92803 22.3734 7.12879 22.3734 6.18182ZM36.653 0.363636V12H35.0393L29.1245 3.46591H29.0166V12H27.2609V0.363636H28.8859L34.8064 8.90909H34.9143V0.363636H36.653ZM39.6002 1.875V0.363636H48.6059V1.875H44.9752V12H43.2252V1.875H39.6002ZM51.1639 12H49.3002L53.4877 0.363636H55.5161L59.7036 12H57.84L54.5502 2.47727H54.4593L51.1639 12ZM51.4764 7.44318H57.5218V8.92045H51.4764V7.44318ZM60.3952 1.875V0.363636H69.4009V1.875H65.7702V12H64.0202V1.875H60.3952ZM81.9589 6.18182C81.9589 7.42424 81.7316 8.49242 81.277 9.38636C80.8225 10.2765 80.1994 10.9621 79.4077 11.4432C78.6199 11.9205 77.724 12.1591 76.7202 12.1591C75.7127 12.1591 74.813 11.9205 74.0214 11.4432C73.2335 10.9621 72.6123 10.2746 72.1577 9.38068C71.7032 8.48674 71.4759 7.42045 71.4759 6.18182C71.4759 4.93939 71.7032 3.87311 72.1577 2.98295C72.6123 2.08901 73.2335 1.40341 74.0214 0.926136C74.813 0.445075 75.7127 0.204545 76.7202 0.204545C77.724 0.204545 78.6199 0.445075 79.4077 0.926136C80.1994 1.40341 80.8225 2.08901 81.277 2.98295C81.7316 3.87311 81.9589 4.93939 81.9589 6.18182ZM80.2202 6.18182C80.2202 5.23485 80.0668 4.4375 79.76 3.78977C79.457 3.13826 79.0403 2.64583 78.51 2.3125C77.9835 1.97538 77.3869 1.80682 76.7202 1.80682C76.0498 1.80682 75.4513 1.97538 74.9248 2.3125C74.3983 2.64583 73.9816 3.13826 73.6748 3.78977C73.3717 4.4375 73.2202 5.23485 73.2202 6.18182C73.2202 7.12879 73.3717 7.92803 73.6748 8.57955C73.9816 9.22727 74.3983 9.7197 74.9248 10.0568C75.4513 10.3902 76.0498 10.5568 76.7202 10.5568C77.3869 10.5568 77.9835 10.3902 78.51 10.0568C79.0403 9.7197 79.457 9.22727 79.76 8.57955C80.0668 7.92803 80.2202 7.12879 80.2202 6.18182Z" fill="white"/>
</svg>
