<svg width="553" height="313" viewBox="0 0 553 313" fill="none" xmlns="http://www.w3.org/2000/svg">
<g clip-path="url(#clip0_106_84)">
<path d="M198.076 238.148C201.396 198.081 189.093 139.447 203.447 131.238C217.703 123.225 222.487 120.586 237.231 104.266C273.164 64.3949 321.79 4.19695 376.177 2.14475C428.612 0.190269 460.736 16.7056 490.81 133.388C505.847 191.729 504.969 222.512 503.504 240.982C502.723 251.145 501.942 264.338 501.454 264.827C500.672 265.511 195.342 271.472 198.076 238.148Z" fill="#E9EDFC"/>
<path d="M79.7756 109.201L75.4793 312.662C75.4793 314.128 79.3851 313.639 80.3615 313.639H86.2201L85.2436 109.494L120.102 110.471L104.968 24.7673C104.186 20.3697 100.378 17.0471 95.7891 17.0471H71.6712C65.9103 17.0471 60.9305 21.1515 59.9541 26.8195L45.21 108.419L79.7756 109.201Z" fill="#E1E6FC"/>
<path d="M19.6283 265.657C19.6283 265.657 19.433 273.67 20.8 274.55C21.3859 275.039 22.0694 275.332 22.7529 275.527L29.4903 311.783C29.4903 311.783 49.1165 315.399 58.9785 311.294L65.7158 275.527L67.9616 274.648L68.8404 265.657C68.8404 265.657 44.7226 257.644 19.6283 265.657Z" fill="#E1E6FC"/>
<path d="M21.873 275.332C21.873 275.332 48.2367 277.384 51.3613 276.504C54.4859 275.625 53.6071 268.491 53.6071 268.491L66.5936 267.123C66.5936 267.123 66.5936 274.745 65.7148 275.625C64.7384 276.798 63.9572 278.166 63.469 279.632C63.469 280.12 58.0986 311.881 58.0986 311.881C58.0986 311.881 49.6037 313.249 48.2367 313.249C46.8697 313.249 51.8495 286.863 51.8495 285.104C51.8495 283.345 51.8495 279.729 50.4825 279.729C49.1155 279.729 23.3377 280.511 23.1424 277.579C22.9471 276.7 22.5565 275.918 21.873 275.332Z" fill="#BAC4F6"/>
<path d="M32.3213 267.318C32.3213 267.318 24.9981 262.139 21.0923 261.65C17.1866 261.162 12.695 260.673 8.7893 260.087C4.88357 259.5 -0.0962293 257.741 0.00141383 255.396C0.099057 253.051 0.58727 251.976 2.83306 250.705C4.78592 249.435 6.93408 248.653 9.27751 248.36C11.0351 248.164 28.6109 252.757 35.9341 263.703L38.8634 267.318H32.3213Z" fill="#BAC4F6"/>
<path d="M6.83643 254.614C6.83643 254.614 13.5738 254.516 17.2842 255.689C20.2135 256.764 22.9475 258.035 25.6815 259.598L36.7152 267.318" fill="#BAC4F6"/>
<path d="M6.83643 254.614C6.83643 254.614 13.5738 254.516 17.2842 255.689C20.2135 256.764 22.9475 258.035 25.6815 259.598L36.7152 267.318" stroke="white" stroke-width="0.484257" stroke-miterlimit="10" stroke-linecap="round"/>
<path d="M40.0354 267.025C40.0354 267.025 31.4428 255.396 28.1229 252.171C24.803 248.946 20.8973 245.135 17.6751 241.715C14.4529 238.294 10.4495 233.408 12.1094 231.356C13.7694 229.304 15.0387 227.936 18.1633 228.424C20.6044 228.717 22.9478 229.499 24.9007 230.965C26.6583 232.04 42.1835 246.894 44.4293 263.898L46.6751 267.318L40.0354 267.025Z" fill="#BAC4F6"/>
<path d="M19.9209 235.265C19.9209 235.265 26.5606 239.271 29.197 243.083C31.6381 246.698 35.5438 253.051 35.5438 253.051L40.0354 265.266" stroke="white" stroke-width="0.484257" stroke-miterlimit="10" stroke-linecap="round"/>
<path d="M44.3315 267.611C44.3315 267.611 34.3719 245.917 32.5166 241.617C30.6614 237.317 23.0453 230.867 21.3853 226.47C19.7254 222.072 18.6513 218.945 20.4089 216.502C22.1665 214.059 26.7557 212.104 29.685 213.57C32.419 214.938 36.0318 219.043 37.5941 221.095C38.8634 222.756 46.9678 252.171 46.2843 259.012L47.8466 267.709L44.3315 267.611Z" fill="#E9EDFC"/>
<path d="M26.7559 221.583C26.7559 221.583 32.5168 229.011 34.2744 233.31C36.2272 238.197 38.1801 247.48 37.8872 246.014L43.8434 266.146" stroke="white" stroke-width="0.484257" stroke-miterlimit="10" stroke-linecap="round"/>
<path d="M38.8635 267.514C38.8635 267.514 30.0757 257.448 25.7794 255.494C21.4831 253.539 16.6009 251.389 12.4023 249.239C8.2036 247.089 3.2238 243.571 4.00494 241.421C4.78609 239.271 5.76252 238.392 8.78946 238.001C11.4258 237.512 14.1598 237.61 16.7962 238.197C18.7491 238.685 37.106 249.826 41.7928 263.018L43.941 267.611L38.8635 267.514Z" fill="#E9EDFC"/>
<path d="M12.1094 243.278C12.1094 243.278 19.7255 245.819 23.5336 248.36C26.3653 250.51 29.0993 252.757 31.7356 255.298L40.133 267.611" stroke="white" stroke-width="0.484257" stroke-miterlimit="10" stroke-linecap="round"/>
<path d="M61.8096 267.709C61.8096 267.709 69.8163 262.823 74.015 262.334C78.2136 261.846 83.0958 261.455 87.3921 260.869C91.6884 260.282 96.9611 258.621 96.8635 256.471C96.7658 254.321 96.2776 253.246 93.7389 251.976C91.5907 250.803 89.2473 250.021 86.8062 249.728C84.951 249.533 65.9106 253.93 57.9039 264.387L54.6816 267.807L61.8096 267.709Z" fill="#BAC4F6"/>
<path d="M89.3445 255.494C89.3445 255.494 82.0212 255.396 78.0179 256.569C74.8933 257.546 71.8663 258.817 68.937 260.282L58.2939 267.416" fill="#BAC4F6"/>
<path d="M89.3445 255.494C89.3445 255.494 82.0212 255.396 78.0179 256.569C74.8933 257.546 71.8663 258.817 68.937 260.282L58.2939 267.416" stroke="white" stroke-width="0.484257" stroke-miterlimit="10" stroke-linecap="round"/>
<path d="M53.4126 267.416C53.4126 267.416 62.6887 256.276 66.3015 253.149C69.9143 250.021 74.113 246.406 77.6281 243.181C81.1433 239.956 85.5372 235.265 83.682 233.311C81.8268 231.356 80.5574 230.086 77.1399 230.477C74.5035 230.672 72.0625 231.552 69.8167 232.92C67.9614 233.995 51.1668 248.165 48.7257 264.387L46.2847 267.709L53.4126 267.416Z" fill="#BAC4F6"/>
<path d="M75.187 237.122C75.187 237.122 67.9614 240.933 65.1298 244.549C62.4934 247.969 58.1971 254.126 58.1971 254.126L53.4126 265.755" stroke="white" stroke-width="0.484257" stroke-miterlimit="10" stroke-linecap="round"/>
<path d="M48.8232 268.002C48.8232 268.002 59.6616 247.285 61.6145 243.18C63.5673 239.076 71.867 232.919 73.7222 228.717C75.5774 224.515 76.7492 221.486 74.7963 219.238C72.8434 216.99 67.8636 215.036 64.739 216.404C61.7121 217.675 57.904 221.583 56.1464 223.636C54.7794 225.199 45.9916 253.344 46.6751 259.891L45.0151 268.198L48.8232 268.002Z" fill="#E9EDFC"/>
<path d="M47.7491 267.709C47.7491 267.709 48.6279 247.48 50.6784 240.933C52.0454 236.535 53.4124 229.206 55.2676 225.102C57.1228 220.997 54.2912 215.525 52.436 213.179C50.5807 210.834 45.6009 211.322 42.3787 212.691C39.3518 213.961 37.6918 218.163 37.3013 220.411C37.0083 222.463 44.1363 246.796 43.3551 255.787L43.941 267.905L47.7491 267.709Z" fill="#BAC4F6"/>
<path d="M67.8637 224.027C67.8637 224.027 61.7121 231.063 59.7593 235.265C57.6111 239.956 55.5606 248.849 55.8536 247.383L48.8232 267.123" stroke="white" stroke-width="0.484257" stroke-miterlimit="10" stroke-linecap="round"/>
<path d="M54.7791 267.807C54.7791 267.807 64.3481 258.23 68.9373 256.373C73.5265 254.517 78.8969 252.464 83.3885 250.412C87.8801 248.36 93.3481 245.037 92.4693 242.985C91.5905 240.933 90.6141 240.151 87.2942 239.76C84.4626 239.369 81.5333 239.369 78.7016 239.956C76.5535 240.444 56.7319 250.998 51.6545 263.605L49.311 267.905L54.7791 267.807Z" fill="#E9EDFC"/>
<path d="M83.5838 244.744C83.5838 244.744 75.3818 247.09 71.2808 249.533C68.1562 251.487 65.2269 253.735 62.3952 256.08L53.1191 266.439" stroke="white" stroke-width="0.484257" stroke-miterlimit="10" stroke-linecap="round"/>
<path d="M45.7959 216.893C45.7959 216.893 47.4558 234.19 46.4794 238.881C46.0888 240.835 46.2841 253.051 46.2841 253.051L45.8935 266.537" stroke="white" stroke-width="0.484257" stroke-miterlimit="10" stroke-linecap="round"/>
<path d="M46.1869 103.924L118.638 105.292L120.103 110.471L45.3081 108.517L46.1869 103.924Z" fill="#BAC4F6"/>
<path d="M399.124 116.188L398.538 258.67L488.956 258.865C488.956 258.865 489.639 183.813 486.026 111.986L399.319 110.716L399.124 116.188Z" fill="#BAC4F6"/>
<path d="M313.98 134.658L311.637 259.061H388.872L388.384 134.658H313.98Z" fill="#BAC4F6"/>
<path d="M201.789 207.658L312.906 208.245L311.637 259.061L202.179 258.964L201.789 207.658Z" fill="#BAC4F6"/>
<path d="M192.609 135.929L192.902 259.354C192.902 259.354 193.586 267.074 201.007 267.465C208.428 267.856 500.576 267.954 500.576 267.954C500.576 267.954 503.212 259.745 502.138 259.452C501.064 259.159 202.178 259.159 202.178 259.159C202.178 259.159 202.276 254.761 202.276 252.025C202.276 248.898 202.081 132.215 202.081 132.215C199.151 133.681 195.929 134.951 192.609 135.929Z" fill="white"/>
<path d="M199.053 148.145L494.619 150.001L496.181 156.353L199.053 157.819V148.145Z" fill="white"/>
<path d="M282.441 52.0816V259.256L290.252 259.843V46.7068L282.441 52.0816Z" fill="white"/>
<path d="M423.633 10.4517L423.438 259.257L430.663 258.67L431.835 15.3379L423.633 10.4517Z" fill="white"/>
<path d="M290.251 46.7068L458.979 47.7818L454.097 38.9866L299.918 38.8889L290.251 46.7068Z" fill="white"/>
<path d="M318.667 87.5556C328.158 87.5556 335.852 79.8551 335.852 70.3562C335.852 60.8572 328.158 53.1567 318.667 53.1567C309.176 53.1567 301.481 60.8572 301.481 70.3562C301.481 79.8551 309.176 87.5556 318.667 87.5556Z" fill="white"/>
<path d="M335.364 87.0669C341.566 87.0669 346.593 82.0353 346.593 75.8286C346.593 69.6219 341.566 64.5903 335.364 64.5903C329.163 64.5903 324.135 69.6219 324.135 75.8286C324.135 82.0353 329.163 87.0669 335.364 87.0669Z" fill="white"/>
<path d="M448.825 103.68C458.478 103.68 466.303 95.8483 466.303 86.1874C466.303 76.5265 458.478 68.6948 448.825 68.6948C439.172 68.6948 431.347 76.5265 431.347 86.1874C431.347 95.8483 439.172 103.68 448.825 103.68Z" fill="white"/>
<path d="M430.761 99.8687C437.07 99.8687 442.185 94.7497 442.185 88.435C442.185 82.1204 437.07 77.0013 430.761 77.0013C424.451 77.0013 419.336 82.1204 419.336 88.435C419.336 94.7497 424.451 99.8687 430.761 99.8687Z" fill="white"/>
<path d="M440.329 300.796C439.157 295.812 438.767 289.362 437.986 289.265H437.107L428.71 289.362C428.71 289.362 426.952 297.376 426.073 300.698C425.976 300.894 425.878 301.48 425.683 301.871C425.487 302.457 425.487 303.044 425.487 303.63C425.683 306.659 426.854 309.298 429.491 310.568C432.518 312.034 434.763 313.5 437.888 310.568C441.11 307.637 441.501 305.78 440.329 300.796Z" fill="#4B44BE"/>
<path d="M413.868 290.046L403.224 290.633C403.224 290.633 399.026 297.962 392.874 299.623C387.113 301.285 377.544 305.291 381.841 307.637C384.965 309.493 405.373 307.832 410.352 308.223C414.063 308.516 415.137 306.268 414.746 301.285C414.453 297.473 413.868 290.046 413.868 290.046Z" fill="#4B44BE"/>
<path d="M401.174 157.533C401.174 157.533 394.047 216.069 393.558 219.881C393.07 223.692 395.999 243.237 395.999 246.95C395.999 250.664 402.932 290.633 402.932 290.633L413.966 290.144C413.966 290.144 411.72 231.314 412.013 228.48C412.306 225.646 424.316 191.541 424.316 191.541C424.316 191.541 425.195 200.531 425.195 203.463C425.195 206.395 428.515 289.558 428.515 289.558H438.181L451.851 167.012L451.656 164.667L401.174 157.533Z" fill="url(#paint0_linear_106_84)"/>
<path d="M433.69 44.368C433.69 44.368 423.046 48.4724 420.703 49.4497C418.36 50.4269 416.993 53.3586 416.993 53.3586C416.993 53.3586 415.821 52.6746 415.821 54.6291C415.821 56.5835 416.797 61.0788 417.578 62.3493C418.848 64.3037 419.922 66.3559 420.996 68.4081C421.972 70.4603 421.582 74.7602 420.605 75.3465C419.629 75.9329 401.663 92.1551 401.663 92.1551L386.821 137.988L388.774 152.451L391.801 166.718C391.801 166.718 391.215 167.793 392.386 168.966C393.656 170.139 399.026 179.032 399.026 179.032L400.881 165.937L394.828 146.587L392.679 130.267L406.935 101.146L456.245 109.941L461.615 141.701L451.656 168.771L449.898 181.963L458.296 174.634C458.784 174.243 459.76 172.191 460.151 171.116L465.131 157.044L468.841 134.567C468.841 134.567 437.693 78.376 436.131 75.0534C435.447 73.5875 436.228 69.874 436.619 68.115C437.009 66.4537 437.791 64.3037 438.572 63.7174C439.743 62.447 440.329 60.5902 440.622 58.9289C440.622 57.7562 441.11 53.1632 439.939 54.2382C439.743 54.5313 438.865 53.1632 438.474 51.3064C437.791 48.3747 435.838 46.1271 433.69 44.368Z" fill="url(#paint1_linear_106_84)"/>
<path d="M429.686 90.2009C428.905 90.8849 427.733 90.7872 426.952 90.1031C426.366 89.2236 425.878 88.3441 425.487 87.4646C424.706 85.901 418.652 76.9104 418.652 76.9104C418.652 76.9104 404.201 80.6239 401.858 82.0898C399.514 83.6534 397.366 85.8033 396.585 88.5396C395.804 91.2758 384.673 123.818 384.087 125.87C383.501 127.825 380.669 131.049 382.036 138.965C383.403 146.978 390.922 167.501 391.703 167.696C392.484 167.891 400.491 163.982 400.491 163.982C400.491 163.982 394.144 138.477 394.144 135.936C394.144 133.395 399.807 126.163 402.151 121.277C404.396 116.391 406.154 112.091 406.935 109.941C407.716 107.791 400.1 152.256 400.1 152.256C400.1 152.256 399.905 160.367 401.467 161.148C402.932 161.833 419.922 168.38 423.827 169.846C424.218 170.041 424.706 169.748 424.901 169.357L427.44 162.126C427.44 162.028 427.538 161.93 427.635 162.028C427.733 162.028 427.733 162.126 427.733 162.126L430.077 169.944C430.174 170.334 430.662 170.53 431.053 170.53L452.046 166.035C452.046 166.035 451.753 127.336 452.144 120.788C452.437 114.436 451.656 110.918 452.827 112.677C454.097 114.534 459.369 132.027 459.369 134.958C459.369 137.89 453.413 163.592 453.413 163.592L461.225 167.989C461.225 167.989 471.868 139.747 472.356 136.033C472.942 132.32 473.137 130.365 471.38 126.652C469.622 122.938 459.955 89.1259 459.955 89.1259C459.955 89.1259 458.979 85.0215 451.851 82.8716C444.723 80.7216 439.45 77.5945 438.181 77.6922C436.912 77.7899 433.006 85.2169 431.248 87.4646C430.467 88.4418 430.662 88.8327 429.686 90.2009Z" fill="url(#paint2_linear_106_84)"/>
<path d="M433.592 44.4661C433.592 44.4661 421.679 48.8636 419.238 50.6227C417.383 51.9908 416.992 53.2612 416.992 53.2612C416.992 53.2612 415.723 52.6749 415.821 54.5316C415.918 56.3884 414.356 51.6976 413.965 50.1341C413.672 48.6682 413.575 44.4661 416.797 41.3389C420.019 38.2117 423.632 35.9641 426.561 36.1595C429.491 36.355 432.029 37.2345 434.373 39.4821C436.716 41.7298 437.302 41.6321 437.79 41.8275C438.278 42.023 440.72 44.6615 441.012 47.4955C441.305 50.3295 440.427 54.5316 440.427 54.5316C440.427 54.5316 439.841 53.9453 439.255 54.3362C438.669 54.8248 438.474 51.5999 436.423 47.7887C435.056 45.0524 433.592 44.4661 433.592 44.4661Z" fill="url(#paint3_linear_106_84)"/>
<path opacity="0.07" d="M426.073 185.58C424.706 189.586 419.433 197.306 415.918 201.997C412.403 206.688 401.76 216.46 402.443 228.48C403.127 240.403 410.352 271.186 410.352 274.02C410.352 276.756 407.618 289.851 405.568 293.858C403.517 297.864 402.541 305.096 403.615 305.096C405.47 304.998 407.521 304.803 409.376 304.314C411.133 303.923 412.891 303.532 414.551 302.946C415.234 302.653 415.43 300.307 415.43 300.307C415.527 299.33 415.332 298.353 415.137 297.473C414.648 296.008 414.258 294.444 414.063 292.978C413.672 281.74 412.598 255.648 412.891 253.889C413.281 250.468 410.547 233.269 413.086 224.865C415.527 216.265 426.073 185.58 426.073 185.58Z" fill="black"/>
<path opacity="0.07" d="M400.393 164.178L398.538 178.25C398.538 178.25 400.393 181.182 400.882 178.739C401.467 176.296 405.275 171.703 402.834 168.38C400.589 165.057 400.393 164.178 400.393 164.178Z" fill="black"/>
<path opacity="0.07" d="M451.851 168.087L451.265 174.83L450.484 181.28C450.484 181.28 447.75 183.234 447.848 180.694C447.946 178.153 443.356 174.341 446.774 171.801C450.191 169.26 451.851 168.087 451.851 168.087Z" fill="black"/>
<path opacity="0.07" d="M418.555 77.1061C419.043 77.0083 416.309 77.6924 418.75 76.9106C422.949 75.5425 421.191 67.6268 421.191 67.6268C421.191 67.6268 421.582 70.5586 425.585 71.7312C429.588 72.9039 430.565 72.0244 424.609 74.8584C418.652 77.6924 421.777 78.5719 422.168 82.1877" fill="black"/>
<path opacity="0.07" d="M406.642 112.873L400.002 153.233C400.002 153.233 400.1 160.464 401.369 161.441C402.639 162.419 406.935 163.2 407.814 163.885C408.79 164.569 419.043 167.989 416.309 162.223C415.723 160.953 401.858 153.233 408.009 145.024C414.161 136.913 413.087 125.674 410.157 117.759C408.4 113.166 407.521 108.28 407.814 103.393L406.642 112.873Z" fill="black"/>
<path d="M93.1118 181.377C92.8188 181.377 92.6235 181.573 92.6235 181.866C92.6235 183.332 92.9165 186.947 95.9434 186.947C99.4585 186.947 278.927 186.85 289.765 186.85C290.156 186.85 290.741 186.166 291.132 185.677C291.62 185.091 292.401 184.113 292.792 182.061C292.89 181.573 292.597 181.182 292.108 181.084C292.011 181.084 292.011 181.084 291.913 181.084L93.1118 181.377Z" fill="url(#paint4_linear_106_84)"/>
<path d="M106 186.948C106 186.948 105.707 190.856 108.929 190.856C112.053 190.856 269.747 190.563 279.219 190.466C279.511 190.466 279.902 190.368 280.195 190.172C280.781 189.684 281.757 188.707 282.05 186.752L106 186.948Z" fill="url(#paint5_linear_106_84)"/>
<path d="M250.219 190.368H252.074L271.212 308.028L269.65 308.126L250.219 190.368Z" fill="url(#paint6_linear_106_84)"/>
<path d="M147.109 190.661H144.961L121.526 308.223L123.382 308.321L147.109 190.661Z" fill="url(#paint7_linear_106_84)"/>
<path d="M160.778 190.661H158.63L135.195 299.721L136.953 299.819L160.778 190.661Z" fill="url(#paint8_linear_106_84)"/>
<path d="M234.792 190.173H236.843L259.105 299.135L257.348 299.233L234.792 190.173Z" fill="url(#paint9_linear_106_84)"/>
<path d="M148.377 183.821L198.175 181.768L205.596 146.979L155.017 147.467L147.498 183.723" fill="url(#paint10_linear_106_84)"/>
<path d="M177.182 169.651C178.853 169.651 180.209 168.207 180.209 166.426C180.209 164.645 178.853 163.201 177.182 163.201C175.51 163.201 174.155 164.645 174.155 166.426C174.155 168.207 175.51 169.651 177.182 169.651Z" fill="white"/>
<path d="M147.986 181.182H120.841C120.646 181.182 120.548 181.28 120.451 181.476L120.06 183.137C120.06 183.332 120.158 183.528 120.353 183.528C120.353 183.528 120.353 183.528 120.451 183.528L147.498 183.821C147.693 183.821 147.791 183.723 147.888 183.528L148.377 181.671C148.377 181.476 148.279 181.28 147.986 181.182Z" fill="url(#paint11_linear_106_84)"/>
<path d="M154.236 146.49L204.815 146.099C204.913 146.099 204.913 146.099 205.01 146.197L205.694 146.979L155.31 147.37C155.212 147.37 155.115 147.467 155.115 147.565L148.573 183.528C148.573 183.625 148.475 183.723 148.377 183.723H147.889C147.792 183.723 147.694 183.625 147.694 183.528L153.943 146.881C153.845 146.686 153.943 146.49 154.236 146.49Z" fill="url(#paint12_linear_106_84)"/>
<path d="M242.016 165.351C241.626 165.253 241.138 165.155 240.747 165.058C239.868 164.862 238.794 165.155 238.208 165.839C237.818 166.328 237.525 167.012 237.427 167.696C237.036 169.748 237.72 171.898 239.282 173.266C240.356 174.341 241.626 175.319 242.895 176.1C243.286 176.296 243.579 176.687 243.579 177.078C243.969 178.543 244.457 180.009 245.043 181.377C245.141 181.573 245.239 181.573 245.336 181.671C247.973 182.452 250.707 182.452 253.343 181.768C253.929 181.573 253.929 181.573 254.222 180.987C255.296 178.153 256.077 175.221 256.467 172.289C256.858 169.553 257.053 166.817 256.956 164.08C256.956 163.592 256.956 163.592 256.467 163.396C255.686 163.103 254.808 163.005 253.929 163.005C251.781 162.81 249.535 162.81 247.289 162.81C245.922 162.81 244.457 163.005 243.09 163.299C242.797 163.396 242.505 163.494 242.212 163.592C242.114 163.689 242.016 163.689 242.016 163.885C242.016 164.374 242.016 164.862 242.016 165.351ZM242.895 174.83C240.552 173.657 239.087 171.898 238.892 169.26C238.794 168.673 238.892 168.185 239.087 167.501C239.282 167.012 239.575 166.621 240.063 166.523C240.845 166.426 241.528 166.817 241.919 167.501V168.282C242.016 169.944 242.212 171.605 242.505 173.169C242.602 173.755 242.7 174.244 242.895 174.83Z" fill="url(#paint13_linear_106_84)"/>
<path d="M242.114 163.592C242.114 163.592 249.339 161.442 256.956 163.592C256.956 163.592 250.609 166.133 242.114 163.592Z" fill="#4A41BC"/>
<path d="M254.123 147.077C254.611 149.715 253.83 152.451 252.073 154.601C251.389 155.579 250.608 156.36 249.924 157.338C248.85 158.804 248.069 160.465 247.776 162.322C247.776 162.517 247.581 162.908 247.581 163.103C247.581 162.615 247.386 162.322 247.386 161.833C247.288 159.683 248.069 157.631 249.436 155.872C250.022 155.09 250.706 154.308 251.291 153.624C252.756 151.865 253.732 149.911 254.123 147.761" fill="url(#paint14_linear_106_84)"/>
<path d="M244.749 160.269C244.749 159.976 244.652 159.78 244.554 159.585C244.456 157.826 245.042 156.067 246.311 154.699C246.995 153.917 247.581 153.135 248.069 152.353C248.753 151.376 249.143 150.203 249.338 149.031C249.436 148.835 249.436 148.249 249.436 148.64L249.534 148.738C249.631 149.031 249.631 149.422 249.729 149.715C249.729 151.278 249.143 152.842 248.167 154.112L246.409 156.262C245.726 157.142 245.335 158.119 245.042 159.194C244.944 159.292 244.944 159.487 244.944 159.585C244.944 159.78 244.847 159.976 244.749 160.269Z" fill="url(#paint15_linear_106_84)"/>
<path d="M252.658 161.344C252.658 161.246 252.561 160.855 252.463 160.464C252.365 158.705 252.951 156.946 254.221 155.578C254.904 154.796 255.49 154.015 255.978 153.233C256.662 152.256 257.052 151.083 257.248 149.91C257.345 149.813 257.443 149.128 257.345 149.617V149.715C257.443 150.008 257.443 150.301 257.541 150.594C257.541 152.158 256.955 153.722 255.978 154.992L254.221 157.142C253.537 158.021 253.147 158.999 252.854 160.074C252.756 160.171 252.756 160.367 252.756 160.464C252.756 160.758 252.658 160.953 252.561 161.246L252.658 161.344Z" fill="url(#paint16_linear_106_84)"/>
</g>
<defs>
<linearGradient id="paint0_linear_106_84" x1="393.482" y1="224.108" x2="451.908" y2="224.108" gradientUnits="userSpaceOnUse">
<stop stop-color="#4B45BD"/>
<stop offset="1" stop-color="#58CAEA"/>
</linearGradient>
<linearGradient id="paint1_linear_106_84" x1="386.81" y1="113.12" x2="468.914" y2="113.12" gradientUnits="userSpaceOnUse">
<stop stop-color="#F87B58"/>
<stop offset="0.41" stop-color="#F89453"/>
<stop offset="0.71" stop-color="#F8C548"/>
<stop offset="1" stop-color="#F89C51"/>
</linearGradient>
<linearGradient id="paint2_linear_106_84" x1="381.628" y1="123.934" x2="472.858" y2="123.934" gradientUnits="userSpaceOnUse">
<stop stop-color="#E5A4ED"/>
<stop offset="1" stop-color="#7A5BF5"/>
</linearGradient>
<linearGradient id="paint3_linear_106_84" x1="413.875" y1="45.5603" x2="441.308" y2="45.5603" gradientUnits="userSpaceOnUse">
<stop stop-color="#4B45BD"/>
<stop offset="1" stop-color="#58CAEA"/>
</linearGradient>
<linearGradient id="paint4_linear_106_84" x1="92.5551" y1="184.032" x2="292.723" y2="184.032" gradientUnits="userSpaceOnUse">
<stop stop-color="#E5A4ED"/>
<stop offset="1" stop-color="#7A5BF5"/>
</linearGradient>
<linearGradient id="paint5_linear_106_84" x1="92.5541" y1="184.032" x2="292.722" y2="184.032" gradientUnits="userSpaceOnUse">
<stop stop-color="#E5A4ED"/>
<stop offset="1" stop-color="#7A5BF5"/>
</linearGradient>
<linearGradient id="paint6_linear_106_84" x1="250.225" y1="249.256" x2="271.174" y2="249.256" gradientUnits="userSpaceOnUse">
<stop stop-color="#E5A4ED"/>
<stop offset="1" stop-color="#7A5BF5"/>
</linearGradient>
<linearGradient id="paint7_linear_106_84" x1="148.177" y1="249.513" x2="122.615" y2="249.513" gradientUnits="userSpaceOnUse">
<stop stop-color="#E5A4ED"/>
<stop offset="1" stop-color="#7A5BF5"/>
</linearGradient>
<linearGradient id="paint8_linear_106_84" x1="161.785" y1="245.223" x2="136.226" y2="245.223" gradientUnits="userSpaceOnUse">
<stop stop-color="#E5A4ED"/>
<stop offset="1" stop-color="#7A5BF5"/>
</linearGradient>
<linearGradient id="paint9_linear_106_84" x1="234.626" y1="244.723" x2="258.96" y2="244.723" gradientUnits="userSpaceOnUse">
<stop stop-color="#E5A4ED"/>
<stop offset="1" stop-color="#7A5BF5"/>
</linearGradient>
<linearGradient id="paint10_linear_106_84" x1="147.479" y1="165.399" x2="205.564" y2="165.399" gradientUnits="userSpaceOnUse">
<stop stop-color="#CD94EF"/>
<stop offset="1" stop-color="#7D5DF5"/>
</linearGradient>
<linearGradient id="paint11_linear_106_84" x1="120.054" y1="182.482" x2="148.316" y2="182.482" gradientUnits="userSpaceOnUse">
<stop stop-color="#7A5BF5"/>
<stop offset="1" stop-color="#8260F4"/>
</linearGradient>
<linearGradient id="paint12_linear_106_84" x1="147.495" y1="164.947" x2="205.581" y2="164.947" gradientUnits="userSpaceOnUse">
<stop stop-color="#7A5BF5"/>
<stop offset="0.71" stop-color="#8260F4"/>
</linearGradient>
<linearGradient id="paint13_linear_106_84" x1="260.084" y1="168.352" x2="227.879" y2="179.532" gradientUnits="userSpaceOnUse">
<stop stop-color="#59CFEE"/>
<stop offset="1" stop-color="#4A41BC"/>
</linearGradient>
<linearGradient id="paint14_linear_106_84" x1="250.28" y1="156.438" x2="247.379" y2="162.839" gradientUnits="userSpaceOnUse">
<stop stop-color="#59CFEE"/>
<stop offset="1" stop-color="#4A41BC"/>
</linearGradient>
<linearGradient id="paint15_linear_106_84" x1="246.847" y1="155.161" x2="245.049" y2="160.049" gradientUnits="userSpaceOnUse">
<stop stop-color="#59CFEE"/>
<stop offset="1" stop-color="#4A41BC"/>
</linearGradient>
<linearGradient id="paint16_linear_106_84" x1="254.644" y1="156.112" x2="252.824" y2="161.065" gradientUnits="userSpaceOnUse">
<stop stop-color="#59CFEE"/>
<stop offset="1" stop-color="#4A41BC"/>
</linearGradient>
<clipPath id="clip0_106_84">
<rect width="552.302" height="312.228" fill="white"/>
</clipPath>
</defs>
</svg>
