<svg width="553" height="313" viewBox="0 0 553 313" fill="none" xmlns="http://www.w3.org/2000/svg">
<g clip-path="url(#clip0_106_84)">
<path d="M246.076 236.101C249.396 196.034 237.093 137.4 251.447 129.191C265.703 121.178 270.487 118.539 285.231 102.219C321.164 62.3478 369.79 2.14983 424.177 0.097629C476.612 -1.85685 508.736 14.6585 538.81 131.341C553.847 189.682 552.969 220.465 551.504 238.935C550.723 249.098 549.942 262.291 549.454 262.78C548.672 263.464 243.342 269.425 246.076 236.101Z" fill="#E9EDFC"/>
<path d="M124.414 106.812L120.118 310.273C120.118 311.739 124.023 311.251 125 311.251H130.858L129.882 107.105L164.74 108.083L149.606 22.3786C148.825 17.9811 145.017 14.6584 140.427 14.6584H116.309C110.548 14.6584 105.569 18.7629 104.592 24.4308L89.8481 106.03L124.414 106.812Z" fill="#E1E6FC"/>
<path d="M64.2665 263.268C64.2665 263.268 64.0712 271.282 65.4382 272.161C66.0241 272.65 66.7076 272.943 67.3911 273.139L74.1284 309.394C74.1284 309.394 93.7547 313.01 103.617 308.905L110.354 273.139L112.6 272.259L113.479 263.268C113.479 263.268 89.3608 255.255 64.2665 263.268Z" fill="#E1E6FC"/>
<path d="M66.5112 272.943C66.5112 272.943 92.8749 274.995 95.9995 274.116C99.124 273.236 98.2452 266.102 98.2452 266.102L111.232 264.734C111.232 264.734 111.232 272.357 110.353 273.236C109.377 274.409 108.595 275.777 108.107 277.243C108.107 277.732 102.737 309.492 102.737 309.492C102.737 309.492 94.2419 310.86 92.8749 310.86C91.5079 310.86 96.4877 284.474 96.4877 282.715C96.4877 280.956 96.4877 277.341 95.1207 277.341C93.7537 277.341 67.9759 278.122 67.7806 275.191C67.5853 274.311 67.1947 273.529 66.5112 272.943Z" fill="#BAC4F6"/>
<path d="M76.9595 264.93C76.9595 264.93 69.6362 259.75 65.7305 259.262C61.8248 258.773 57.3332 258.284 53.4275 257.698C49.5218 257.112 44.542 255.353 44.6396 253.007C44.7372 250.662 45.2255 249.587 47.4712 248.317C49.4241 247.046 51.5723 246.264 53.9157 245.971C55.6733 245.776 73.249 250.369 80.5723 261.314L83.5016 264.93H76.9595V264.93Z" fill="#BAC4F6"/>
<path d="M51.4746 252.226C51.4746 252.226 58.212 252.128 61.9224 253.3C64.8517 254.375 67.5857 255.646 70.3197 257.209L81.3534 264.93" fill="#BAC4F6"/>
<path d="M51.4746 252.226C51.4746 252.226 58.212 252.128 61.9224 253.3C64.8517 254.375 67.5857 255.646 70.3197 257.209L81.3534 264.93" stroke="white" stroke-width="0.484257" stroke-miterlimit="10" stroke-linecap="round"/>
<path d="M84.6736 264.637C84.6736 264.637 76.081 253.007 72.7611 249.783C69.4412 246.558 65.5355 242.746 62.3133 239.326C59.0911 235.906 55.0877 231.019 56.7476 228.967C58.4076 226.915 59.6769 225.547 62.8015 226.036C65.2426 226.329 67.586 227.111 69.5389 228.576C71.2964 229.651 86.8217 244.505 89.0675 261.509L91.3133 264.93L84.6736 264.637Z" fill="#BAC4F6"/>
<path d="M64.5591 232.876C64.5591 232.876 71.1988 236.883 73.8352 240.694C76.2763 244.31 80.182 250.662 80.182 250.662L84.6736 262.877" stroke="white" stroke-width="0.484257" stroke-miterlimit="10" stroke-linecap="round"/>
<path d="M88.9696 265.223C88.9696 265.223 79.01 243.528 77.1548 239.228C75.2996 234.928 67.6834 228.479 66.0235 224.081C64.3636 219.683 63.2895 216.556 65.0471 214.113C66.8046 211.67 71.3939 209.716 74.3232 211.181C77.0572 212.55 80.67 216.654 82.2323 218.706C83.5016 220.367 91.606 249.782 90.9225 256.623L92.4848 265.32L88.9696 265.223Z" fill="#E9EDFC"/>
<path d="M71.394 219.195C71.394 219.195 77.155 226.622 78.9126 230.922C80.8654 235.808 82.8183 245.092 82.5254 243.626L88.4816 263.757" stroke="white" stroke-width="0.484257" stroke-miterlimit="10" stroke-linecap="round"/>
<path d="M83.5017 265.125C83.5017 265.125 74.7138 255.059 70.4175 253.105C66.1212 251.151 61.2391 249.001 57.0404 246.851C52.8418 244.701 47.862 241.183 48.6431 239.033C49.4243 236.883 50.4007 236.003 53.4276 235.612C56.064 235.124 58.798 235.222 61.4344 235.808C63.3872 236.296 81.7441 247.437 86.431 260.63L88.5792 265.223L83.5017 265.125Z" fill="#E9EDFC"/>
<path d="M56.7476 240.889C56.7476 240.889 64.3637 243.43 68.1718 245.971C71.0035 248.121 73.7375 250.369 76.3738 252.909L84.7711 265.223" stroke="white" stroke-width="0.484257" stroke-miterlimit="10" stroke-linecap="round"/>
<path d="M106.448 265.321C106.448 265.321 114.455 260.434 118.653 259.946C122.852 259.457 127.734 259.066 132.03 258.48C136.327 257.894 141.599 256.232 141.502 254.082C141.404 251.932 140.916 250.857 138.377 249.587C136.229 248.414 133.885 247.633 131.444 247.339C129.589 247.144 110.549 251.541 102.542 261.998L99.3198 265.418L106.448 265.321Z" fill="#BAC4F6"/>
<path d="M133.983 253.105C133.983 253.105 126.659 253.008 122.656 254.18C119.531 255.157 116.505 256.428 113.575 257.894L102.932 265.028" fill="#BAC4F6"/>
<path d="M133.983 253.105C133.983 253.105 126.659 253.008 122.656 254.18C119.531 255.157 116.505 256.428 113.575 257.894L102.932 265.028" stroke="white" stroke-width="0.484257" stroke-miterlimit="10" stroke-linecap="round"/>
<path d="M98.0508 265.028C98.0508 265.028 107.327 253.887 110.94 250.76C114.552 247.633 118.751 244.017 122.266 240.792C125.781 237.567 130.175 232.876 128.32 230.922C126.465 228.967 125.196 227.697 121.778 228.088C119.142 228.283 116.701 229.163 114.455 230.531C112.6 231.606 95.805 245.776 93.3639 261.998L90.9229 265.321L98.0508 265.028Z" fill="#BAC4F6"/>
<path d="M119.825 234.733C119.825 234.733 112.6 238.544 109.768 242.16C107.132 245.58 102.835 251.737 102.835 251.737L98.0508 263.366" stroke="white" stroke-width="0.484257" stroke-miterlimit="10" stroke-linecap="round"/>
<path d="M93.4614 265.614C93.4614 265.614 104.3 244.896 106.253 240.792C108.206 236.687 116.505 230.531 118.36 226.329C120.216 222.127 121.387 219.097 119.434 216.849C117.482 214.602 112.502 212.647 109.377 214.015C106.35 215.286 102.542 219.195 100.785 221.247C99.4176 222.811 90.6297 250.955 91.3133 257.503L89.6533 265.809L93.4614 265.614Z" fill="#E9EDFC"/>
<path d="M92.3873 265.321C92.3873 265.321 93.2661 245.092 95.3166 238.544C96.6836 234.147 98.0506 226.817 99.9058 222.713C101.761 218.608 98.9294 213.136 97.0741 210.791C95.2189 208.445 90.2391 208.934 87.0169 210.302C83.99 211.572 82.33 215.774 81.9395 218.022C81.6465 220.074 88.7745 244.408 87.9933 253.398L88.5792 265.516L92.3873 265.321Z" fill="#BAC4F6"/>
<path d="M112.502 221.638C112.502 221.638 106.35 228.674 104.397 232.876C102.249 237.567 100.199 246.46 100.492 244.994L93.4614 264.734" stroke="white" stroke-width="0.484257" stroke-miterlimit="10" stroke-linecap="round"/>
<path d="M99.4172 265.418C99.4172 265.418 108.986 255.841 113.575 253.985C118.165 252.128 123.535 250.076 128.027 248.023C132.518 245.971 137.986 242.649 137.107 240.596C136.229 238.544 135.252 237.762 131.932 237.372C129.101 236.981 126.171 236.981 123.34 237.567C121.192 238.056 101.37 248.61 96.2927 261.216L93.9492 265.516L99.4172 265.418Z" fill="#E9EDFC"/>
<path d="M128.222 242.355C128.222 242.355 120.02 244.701 115.919 247.144C112.794 249.098 109.865 251.346 107.033 253.691L97.7573 264.05" stroke="white" stroke-width="0.484257" stroke-miterlimit="10" stroke-linecap="round"/>
<path d="M90.4341 214.504C90.4341 214.504 92.094 231.801 91.1176 236.492C90.727 238.447 90.9223 250.662 90.9223 250.662L90.5317 264.148" stroke="white" stroke-width="0.484257" stroke-miterlimit="10" stroke-linecap="round"/>
<path d="M90.8251 101.535L163.276 102.903L164.741 108.083L89.9463 106.128L90.8251 101.535Z" fill="#BAC4F6"/>
<path d="M447.124 114.141L446.538 256.623L536.956 256.818C536.956 256.818 537.639 181.766 534.026 109.939L447.319 108.669L447.124 114.141Z" fill="#BAC4F6"/>
<path d="M361.98 132.611L359.637 257.014H436.872L436.384 132.611H361.98Z" fill="#BAC4F6"/>
<path d="M249.789 205.611L360.906 206.198L359.637 257.014L250.179 256.916L249.789 205.611Z" fill="#BAC4F6"/>
<path d="M240.609 133.882L240.902 257.307C240.902 257.307 241.586 265.027 249.007 265.418C256.428 265.809 548.576 265.907 548.576 265.907C548.576 265.907 551.212 257.698 550.138 257.405C549.064 257.111 250.178 257.112 250.178 257.112C250.178 257.112 250.276 252.714 250.276 249.978C250.276 246.85 250.081 130.168 250.081 130.168C247.151 131.634 243.929 132.904 240.609 133.882Z" fill="white"/>
<path d="M247.053 146.097L542.619 147.954L544.181 154.306L247.053 155.772V146.097Z" fill="white"/>
<path d="M330.441 50.0345V257.209L338.252 257.796V44.6597L330.441 50.0345Z" fill="white"/>
<path d="M471.633 8.40454L471.438 257.21L478.663 256.623L479.835 13.2907L471.633 8.40454Z" fill="white"/>
<path d="M338.251 44.6597L506.979 45.7347L502.097 36.9395L347.918 36.8418L338.251 44.6597Z" fill="white"/>
<path d="M366.667 85.5084C376.158 85.5084 383.852 77.808 383.852 68.309C383.852 58.8101 376.158 51.1096 366.667 51.1096C357.176 51.1096 349.481 58.8101 349.481 68.309C349.481 77.808 357.176 85.5084 366.667 85.5084Z" fill="white"/>
<path d="M383.364 85.0197C389.566 85.0197 394.593 79.9882 394.593 73.7815C394.593 67.5748 389.566 62.5432 383.364 62.5432C377.163 62.5432 372.135 67.5748 372.135 73.7815C372.135 79.9882 377.163 85.0197 383.364 85.0197Z" fill="white"/>
<path d="M496.825 101.633C506.478 101.633 514.303 93.8012 514.303 84.1403C514.303 74.4794 506.478 66.6477 496.825 66.6477C487.172 66.6477 479.347 74.4794 479.347 84.1403C479.347 93.8012 487.172 101.633 496.825 101.633Z" fill="white"/>
<path d="M478.761 97.8216C485.07 97.8216 490.185 92.7026 490.185 86.3879C490.185 80.0733 485.07 74.9542 478.761 74.9542C472.451 74.9542 467.336 80.0733 467.336 86.3879C467.336 92.7026 472.451 97.8216 478.761 97.8216Z" fill="white"/>
<path d="M488.329 302.749C487.157 297.765 486.767 291.315 485.986 291.217H485.107L476.71 291.315C476.71 291.315 474.952 299.328 474.073 302.651C473.976 302.847 473.878 303.433 473.683 303.824C473.487 304.41 473.487 304.996 473.487 305.583C473.683 308.612 474.854 311.251 477.491 312.521C480.518 313.987 482.763 315.453 485.888 312.521C489.11 309.589 489.501 307.733 488.329 302.749Z" fill="#4B44BE"/>
<path d="M461.867 291.999L451.224 292.585C451.224 292.585 447.026 299.915 440.874 301.576C435.113 303.237 425.544 307.244 429.841 309.589C432.965 311.446 453.373 309.785 458.352 310.176C462.063 310.469 463.137 308.221 462.746 303.237C462.453 299.426 461.867 291.999 461.867 291.999Z" fill="#4B44BE"/>
<path d="M449.174 159.486C449.174 159.486 442.047 218.022 441.558 221.834C441.07 225.645 443.999 245.19 443.999 248.903C443.999 252.617 450.932 292.586 450.932 292.586L461.966 292.097C461.966 292.097 459.72 233.267 460.013 230.433C460.306 227.599 472.316 193.494 472.316 193.494C472.316 193.494 473.195 202.484 473.195 205.416C473.195 208.348 476.515 291.511 476.515 291.511H486.181L499.851 168.965L499.656 166.62L449.174 159.486Z" fill="url(#paint0_linear_106_84)"/>
<path d="M481.69 46.3209C481.69 46.3209 471.046 50.4253 468.703 51.4026C466.36 52.3798 464.993 55.3115 464.993 55.3115C464.993 55.3115 463.821 54.6275 463.821 56.5819C463.821 58.5364 464.797 63.0317 465.578 64.3021C466.848 66.2566 467.922 68.3088 468.996 70.361C469.972 72.4132 469.582 76.7131 468.605 77.2994C467.629 77.8858 449.663 94.1079 449.663 94.1079L434.821 139.94L436.774 154.404L439.801 168.671C439.801 168.671 439.215 169.746 440.386 170.919C441.656 172.092 447.026 180.985 447.026 180.985L448.881 167.89L442.828 148.54L440.679 132.22L454.935 103.099L504.245 111.894L509.615 143.654L499.656 170.724L497.898 183.916L506.296 176.587C506.784 176.196 507.76 174.144 508.151 173.069L513.131 158.997L516.841 136.52C516.841 136.52 485.693 80.3289 484.131 77.0062C483.447 75.5404 484.228 71.8269 484.619 70.0678C485.009 68.4065 485.791 66.2566 486.572 65.6703C487.743 64.3999 488.329 62.5431 488.622 60.8818C488.622 59.7091 489.11 55.1161 487.939 56.191C487.743 56.4842 486.865 55.1161 486.474 53.2593C485.791 50.3276 483.838 48.08 481.69 46.3209Z" fill="url(#paint1_linear_106_84)"/>
<path d="M477.686 92.1537C476.905 92.8378 475.733 92.7401 474.952 92.056C474.366 91.1765 473.878 90.297 473.487 89.4175C472.706 87.8539 466.652 78.8633 466.652 78.8633C466.652 78.8633 452.201 82.5768 449.858 84.0427C447.514 85.6062 445.366 87.7562 444.585 90.4924C443.804 93.2287 432.673 125.771 432.087 127.823C431.501 129.777 428.669 133.002 430.036 140.918C431.403 148.931 438.922 169.453 439.703 169.649C440.484 169.844 448.491 165.935 448.491 165.935C448.491 165.935 442.144 140.429 442.144 137.889C442.144 135.348 447.807 128.116 450.151 123.23C452.396 118.344 454.154 114.044 454.935 111.894C455.716 109.744 448.1 154.208 448.1 154.208C448.1 154.208 447.905 162.32 449.467 163.101C450.932 163.785 467.922 170.333 471.827 171.799C472.218 171.994 472.706 171.701 472.901 171.31L475.44 164.079C475.44 163.981 475.538 163.883 475.635 163.981C475.733 163.981 475.733 164.079 475.733 164.079L478.077 171.896C478.174 172.287 478.662 172.483 479.053 172.483L500.046 167.988C500.046 167.988 499.753 129.289 500.144 122.741C500.437 116.389 499.656 112.871 500.827 114.63C502.097 116.487 507.369 133.98 507.369 136.911C507.369 139.843 501.413 165.544 501.413 165.544L509.225 169.942C509.225 169.942 519.868 141.7 520.356 137.986C520.942 134.273 521.137 132.318 519.38 128.605C517.622 124.891 507.955 91.0788 507.955 91.0788C507.955 91.0788 506.979 86.9744 499.851 84.8244C492.723 82.6745 487.45 79.5474 486.181 79.6451C484.912 79.7428 481.006 87.1698 479.248 89.4175C478.467 90.3947 478.662 90.7856 477.686 92.1537Z" fill="url(#paint2_linear_106_84)"/>
<path d="M481.592 46.419C481.592 46.419 469.679 50.8165 467.238 52.5756C465.383 53.9437 464.992 55.2141 464.992 55.2141C464.992 55.2141 463.723 54.6278 463.821 56.4845C463.918 58.3413 462.356 53.6505 461.965 52.0869C461.672 50.6211 461.575 46.4189 464.797 43.2918C468.019 40.1646 471.632 37.917 474.561 38.1124C477.491 38.3079 480.029 39.1874 482.373 41.435C484.716 43.6827 485.302 43.585 485.79 43.7804C486.278 43.9759 488.72 46.6144 489.012 49.4484C489.305 52.2824 488.427 56.4845 488.427 56.4845C488.427 56.4845 487.841 55.8982 487.255 56.2891C486.669 56.7777 486.474 53.5528 484.423 49.7416C483.056 47.0053 481.592 46.419 481.592 46.419Z" fill="url(#paint3_linear_106_84)"/>
<path opacity="0.07" d="M474.073 187.532C472.706 191.539 467.433 199.259 463.918 203.95C460.403 208.641 449.76 218.413 450.443 230.433C451.127 242.356 458.352 273.139 458.352 275.973C458.352 278.709 455.618 291.804 453.568 295.811C451.517 299.817 450.541 307.049 451.615 307.049C453.47 306.951 455.521 306.756 457.376 306.267C459.133 305.876 460.891 305.485 462.551 304.899C463.234 304.606 463.43 302.26 463.43 302.26C463.527 301.283 463.332 300.306 463.137 299.426C462.648 297.961 462.258 296.397 462.063 294.931C461.672 283.693 460.598 257.601 460.891 255.841C461.281 252.421 458.547 235.222 461.086 226.818C463.527 218.218 474.073 187.532 474.073 187.532Z" fill="black"/>
<path opacity="0.07" d="M448.393 166.131L446.538 180.203C446.538 180.203 448.393 183.135 448.882 180.692C449.467 178.249 453.275 173.656 450.834 170.333C448.589 167.01 448.393 166.131 448.393 166.131Z" fill="black"/>
<path opacity="0.07" d="M499.851 170.04L499.265 176.783L498.484 183.233C498.484 183.233 495.75 185.187 495.848 182.646C495.946 180.106 491.356 176.294 494.774 173.754C498.191 171.213 499.851 170.04 499.851 170.04Z" fill="black"/>
<path opacity="0.07" d="M466.555 79.0589C467.043 78.9612 464.309 79.6453 466.75 78.8635C470.949 77.4954 469.191 69.5797 469.191 69.5797C469.191 69.5797 469.582 72.5114 473.585 73.6841C477.588 74.8568 478.565 73.9773 472.609 76.8113C466.652 79.6453 469.777 80.5248 470.168 84.1406" fill="black"/>
<path opacity="0.07" d="M454.642 114.826L448.002 155.186C448.002 155.186 448.1 162.417 449.369 163.394C450.639 164.372 454.935 165.153 455.814 165.837C456.79 166.522 467.043 169.942 464.309 164.176C463.723 162.906 449.858 155.186 456.009 146.977C462.161 138.866 461.087 127.627 458.157 119.712C456.4 115.119 455.521 110.233 455.814 105.346L454.642 114.826Z" fill="black"/>
<path d="M141.112 183.33C140.819 183.33 140.624 183.525 140.624 183.819C140.624 185.285 140.916 188.9 143.943 188.9C147.459 188.9 326.927 188.803 337.765 188.803C338.156 188.803 338.741 188.119 339.132 187.63C339.62 187.044 340.401 186.066 340.792 184.014C340.89 183.525 340.597 183.135 340.108 183.037C340.011 183.037 340.011 183.037 339.913 183.037L141.112 183.33Z" fill="url(#paint4_linear_106_84)"/>
<path d="M154 188.9C154 188.9 153.707 192.809 156.929 192.809C160.053 192.809 317.747 192.516 327.219 192.418C327.511 192.418 327.902 192.321 328.195 192.125C328.781 191.637 329.757 190.659 330.05 188.705L154 188.9Z" fill="url(#paint5_linear_106_84)"/>
<path d="M298.219 192.321H300.074L319.212 309.981L317.65 310.079L298.219 192.321Z" fill="url(#paint6_linear_106_84)"/>
<path d="M195.109 192.614H192.961L169.526 310.176L171.382 310.274L195.109 192.614Z" fill="url(#paint7_linear_106_84)"/>
<path d="M208.778 192.614H206.63L183.195 301.674L184.953 301.772L208.778 192.614Z" fill="url(#paint8_linear_106_84)"/>
<path d="M282.792 192.125H284.843L307.105 301.088L305.348 301.185L282.792 192.125Z" fill="url(#paint9_linear_106_84)"/>
<path d="M196.377 185.774L246.175 183.721L253.596 148.932L203.017 149.42L195.498 185.676" fill="url(#paint10_linear_106_84)"/>
<path d="M225.182 171.603C226.853 171.603 228.209 170.16 228.209 168.379C228.209 166.598 226.853 165.154 225.182 165.154C223.51 165.154 222.155 166.598 222.155 168.379C222.155 170.16 223.51 171.603 225.182 171.603Z" fill="white"/>
<path d="M195.986 183.135H168.841C168.646 183.135 168.548 183.233 168.451 183.428L168.06 185.09C168.06 185.285 168.158 185.481 168.353 185.481C168.353 185.481 168.353 185.481 168.451 185.481L195.498 185.774C195.693 185.774 195.791 185.676 195.888 185.481L196.377 183.624C196.377 183.428 196.279 183.233 195.986 183.135Z" fill="url(#paint11_linear_106_84)"/>
<path d="M202.236 148.443L252.815 148.052C252.913 148.052 252.913 148.052 253.01 148.15L253.694 148.932L203.31 149.323C203.212 149.323 203.115 149.42 203.115 149.518L196.573 185.48C196.573 185.578 196.475 185.676 196.377 185.676H195.889C195.792 185.676 195.694 185.578 195.694 185.48L201.943 148.834C201.845 148.638 201.943 148.443 202.236 148.443Z" fill="url(#paint12_linear_106_84)"/>
<path d="M290.016 167.304C289.626 167.206 289.138 167.108 288.747 167.01C287.868 166.815 286.794 167.108 286.208 167.792C285.818 168.281 285.525 168.965 285.427 169.649C285.036 171.701 285.72 173.851 287.282 175.219C288.356 176.294 289.626 177.271 290.895 178.053C291.286 178.249 291.579 178.64 291.579 179.031C291.969 180.496 292.457 181.962 293.043 183.33C293.141 183.526 293.239 183.526 293.336 183.624C295.973 184.405 298.707 184.405 301.343 183.721C301.929 183.526 301.929 183.526 302.222 182.939C303.296 180.105 304.077 177.174 304.467 174.242C304.858 171.506 305.053 168.769 304.956 166.033C304.956 165.545 304.956 165.545 304.467 165.349C303.686 165.056 302.808 164.958 301.929 164.958C299.781 164.763 297.535 164.763 295.289 164.763C293.922 164.763 292.457 164.958 291.09 165.251C290.797 165.349 290.505 165.447 290.212 165.545C290.114 165.642 290.016 165.642 290.016 165.838C290.016 166.326 290.016 166.815 290.016 167.304ZM290.895 176.783C288.552 175.61 287.087 173.851 286.892 171.213C286.794 170.626 286.892 170.138 287.087 169.454C287.282 168.965 287.575 168.574 288.063 168.476C288.845 168.379 289.528 168.769 289.919 169.454V170.235C290.016 171.897 290.212 173.558 290.505 175.122C290.602 175.708 290.7 176.197 290.895 176.783Z" fill="url(#paint13_linear_106_84)"/>
<path d="M290.114 165.545C290.114 165.545 297.339 163.395 304.956 165.545C304.956 165.545 298.609 168.085 290.114 165.545Z" fill="#4A41BC"/>
<path d="M302.123 149.03C302.611 151.668 301.83 154.404 300.073 156.554C299.389 157.532 298.608 158.313 297.924 159.291C296.85 160.756 296.069 162.418 295.776 164.274C295.776 164.47 295.581 164.861 295.581 165.056C295.581 164.568 295.386 164.274 295.386 163.786C295.288 161.636 296.069 159.584 297.436 157.825C298.022 157.043 298.706 156.261 299.291 155.577C300.756 153.818 301.732 151.864 302.123 149.714" fill="url(#paint14_linear_106_84)"/>
<path d="M292.749 162.222C292.749 161.929 292.652 161.733 292.554 161.538C292.456 159.779 293.042 158.02 294.311 156.652C294.995 155.87 295.581 155.088 296.069 154.306C296.753 153.329 297.143 152.156 297.338 150.984C297.436 150.788 297.436 150.202 297.436 150.593L297.534 150.691C297.631 150.984 297.631 151.375 297.729 151.668C297.729 153.231 297.143 154.795 296.167 156.065L294.409 158.215C293.726 159.095 293.335 160.072 293.042 161.147C292.944 161.245 292.944 161.44 292.944 161.538C292.944 161.733 292.847 161.929 292.749 162.222Z" fill="url(#paint15_linear_106_84)"/>
<path d="M300.658 163.297C300.658 163.199 300.561 162.808 300.463 162.417C300.365 160.658 300.951 158.899 302.221 157.531C302.904 156.749 303.49 155.968 303.978 155.186C304.662 154.209 305.052 153.036 305.248 151.863C305.345 151.765 305.443 151.081 305.345 151.57V151.668C305.443 151.961 305.443 152.254 305.541 152.547C305.541 154.111 304.955 155.674 303.978 156.945L302.221 159.095C301.537 159.974 301.147 160.951 300.854 162.026C300.756 162.124 300.756 162.32 300.756 162.417C300.756 162.71 300.658 162.906 300.561 163.199L300.658 163.297Z" fill="url(#paint16_linear_106_84)"/>
</g>
<defs>
<linearGradient id="paint0_linear_106_84" x1="441.482" y1="226.061" x2="499.908" y2="226.061" gradientUnits="userSpaceOnUse">
<stop stop-color="#4B45BD"/>
<stop offset="1" stop-color="#58CAEA"/>
</linearGradient>
<linearGradient id="paint1_linear_106_84" x1="434.81" y1="115.073" x2="516.914" y2="115.073" gradientUnits="userSpaceOnUse">
<stop stop-color="#F87B58"/>
<stop offset="0.41" stop-color="#F89453"/>
<stop offset="0.71" stop-color="#F8C548"/>
<stop offset="1" stop-color="#F89C51"/>
</linearGradient>
<linearGradient id="paint2_linear_106_84" x1="429.628" y1="125.887" x2="520.858" y2="125.887" gradientUnits="userSpaceOnUse">
<stop stop-color="#E5A4ED"/>
<stop offset="1" stop-color="#7A5BF5"/>
</linearGradient>
<linearGradient id="paint3_linear_106_84" x1="461.875" y1="47.5132" x2="489.308" y2="47.5132" gradientUnits="userSpaceOnUse">
<stop stop-color="#4B45BD"/>
<stop offset="1" stop-color="#58CAEA"/>
</linearGradient>
<linearGradient id="paint4_linear_106_84" x1="140.555" y1="185.984" x2="340.723" y2="185.984" gradientUnits="userSpaceOnUse">
<stop stop-color="#E5A4ED"/>
<stop offset="1" stop-color="#7A5BF5"/>
</linearGradient>
<linearGradient id="paint5_linear_106_84" x1="140.554" y1="185.985" x2="340.722" y2="185.985" gradientUnits="userSpaceOnUse">
<stop stop-color="#E5A4ED"/>
<stop offset="1" stop-color="#7A5BF5"/>
</linearGradient>
<linearGradient id="paint6_linear_106_84" x1="298.225" y1="251.208" x2="319.174" y2="251.208" gradientUnits="userSpaceOnUse">
<stop stop-color="#E5A4ED"/>
<stop offset="1" stop-color="#7A5BF5"/>
</linearGradient>
<linearGradient id="paint7_linear_106_84" x1="196.177" y1="251.466" x2="170.615" y2="251.466" gradientUnits="userSpaceOnUse">
<stop stop-color="#E5A4ED"/>
<stop offset="1" stop-color="#7A5BF5"/>
</linearGradient>
<linearGradient id="paint8_linear_106_84" x1="209.785" y1="247.176" x2="184.226" y2="247.176" gradientUnits="userSpaceOnUse">
<stop stop-color="#E5A4ED"/>
<stop offset="1" stop-color="#7A5BF5"/>
</linearGradient>
<linearGradient id="paint9_linear_106_84" x1="282.626" y1="246.676" x2="306.96" y2="246.676" gradientUnits="userSpaceOnUse">
<stop stop-color="#E5A4ED"/>
<stop offset="1" stop-color="#7A5BF5"/>
</linearGradient>
<linearGradient id="paint10_linear_106_84" x1="195.479" y1="167.352" x2="253.564" y2="167.352" gradientUnits="userSpaceOnUse">
<stop stop-color="#CD94EF"/>
<stop offset="1" stop-color="#7D5DF5"/>
</linearGradient>
<linearGradient id="paint11_linear_106_84" x1="168.054" y1="184.435" x2="196.316" y2="184.435" gradientUnits="userSpaceOnUse">
<stop stop-color="#7A5BF5"/>
<stop offset="1" stop-color="#8260F4"/>
</linearGradient>
<linearGradient id="paint12_linear_106_84" x1="195.495" y1="166.9" x2="253.581" y2="166.9" gradientUnits="userSpaceOnUse">
<stop stop-color="#7A5BF5"/>
<stop offset="0.71" stop-color="#8260F4"/>
</linearGradient>
<linearGradient id="paint13_linear_106_84" x1="308.084" y1="170.305" x2="275.879" y2="181.485" gradientUnits="userSpaceOnUse">
<stop stop-color="#59CFEE"/>
<stop offset="1" stop-color="#4A41BC"/>
</linearGradient>
<linearGradient id="paint14_linear_106_84" x1="298.28" y1="158.391" x2="295.379" y2="164.792" gradientUnits="userSpaceOnUse">
<stop stop-color="#59CFEE"/>
<stop offset="1" stop-color="#4A41BC"/>
</linearGradient>
<linearGradient id="paint15_linear_106_84" x1="294.847" y1="157.113" x2="293.049" y2="162.002" gradientUnits="userSpaceOnUse">
<stop stop-color="#59CFEE"/>
<stop offset="1" stop-color="#4A41BC"/>
</linearGradient>
<linearGradient id="paint16_linear_106_84" x1="302.644" y1="158.065" x2="300.824" y2="163.018" gradientUnits="userSpaceOnUse">
<stop stop-color="#59CFEE"/>
<stop offset="1" stop-color="#4A41BC"/>
</linearGradient>
<clipPath id="clip0_106_84">
<rect width="552.302" height="312.228" fill="white"/>
</clipPath>
</defs>
</svg>
