<svg width="572" height="312" viewBox="0 0 572 312" fill="none" xmlns="http://www.w3.org/2000/svg">
<g clip-path="url(#clip0_106_84)">
<path d="M208.622 235.976C212.061 195.938 199.319 137.347 214.184 129.144C228.949 121.136 233.904 118.5 249.174 102.192C286.388 62.3493 336.748 2.19535 393.075 0.144642C447.38 -1.80841 480.65 14.6949 511.797 131.292C527.37 189.591 526.46 220.351 524.943 238.808C524.134 248.963 523.325 262.147 522.819 262.635C522.01 263.318 205.791 269.275 208.622 235.976Z" fill="#E9EDFC"/>
<path d="M82.6207 106.781L78.1712 310.094C78.1712 311.559 82.2162 311.07 83.2275 311.07H89.295L88.2837 107.074L124.386 108.051L108.711 22.4094C107.902 18.015 103.958 14.6948 99.2053 14.6948H74.2273C68.2609 14.6948 63.1035 18.7962 62.0922 24.4601L46.8223 106L82.6207 106.781Z" fill="#E1E6FC"/>
<path d="M20.3283 263.123C20.3283 263.123 20.1261 271.131 21.5419 272.01C22.1486 272.498 22.8565 272.791 23.5644 272.986L30.542 309.215C30.542 309.215 50.8682 312.829 61.0819 308.727L68.0596 272.986L70.3855 272.107L71.2956 263.123C71.2956 263.123 46.3176 255.116 20.3283 263.123Z" fill="#E1E6FC"/>
<path d="M22.6533 272.791C22.6533 272.791 49.9572 274.842 53.1932 273.963C56.4292 273.084 55.5191 265.955 55.5191 265.955L68.9688 264.588C68.9688 264.588 68.9688 272.205 68.0587 273.084C67.0474 274.256 66.2384 275.623 65.7328 277.088C65.7328 277.576 60.1709 309.313 60.1709 309.313C60.1709 309.313 51.373 310.68 49.9572 310.68C48.5415 310.68 53.6989 284.314 53.6989 282.556C53.6989 280.798 53.6989 277.185 52.2831 277.185C50.8673 277.185 24.1702 277.967 23.968 275.037C23.7657 274.158 23.3612 273.377 22.6533 272.791Z" fill="#BAC4F6"/>
<path d="M33.474 264.783C33.474 264.783 25.8896 259.608 21.8446 259.119C17.7996 258.631 13.1478 258.143 9.10276 257.557C5.05774 256.971 -0.0996612 255.213 0.00146425 252.87C0.10259 250.526 0.608215 249.452 2.9341 248.182C4.95661 246.913 7.18137 246.132 9.60839 245.839C11.4286 245.643 29.6312 250.233 37.2157 261.17L40.2494 264.783H33.474V264.783Z" fill="#BAC4F6"/>
<path d="M7.08008 252.088C7.08008 252.088 14.0577 251.991 17.9005 253.163C20.9343 254.237 23.7658 255.506 26.5973 257.069L38.0245 264.783" fill="#BAC4F6"/>
<path d="M7.08008 252.088C7.08008 252.088 14.0577 251.991 17.9005 253.163C20.9343 254.237 23.7658 255.506 26.5973 257.069L38.0245 264.783" stroke="white" stroke-width="0.484257" stroke-miterlimit="10" stroke-linecap="round"/>
<path d="M41.4632 264.49C41.4632 264.49 32.5641 252.87 29.1258 249.647C25.6876 246.425 21.6426 242.616 18.3054 239.198C14.9683 235.78 10.8221 230.898 12.5413 228.847C14.2604 226.796 15.575 225.429 18.811 225.918C21.3392 226.211 23.7662 226.992 25.7887 228.457C27.609 229.531 43.6879 244.374 46.0138 261.365L48.3397 264.783L41.4632 264.49Z" fill="#BAC4F6"/>
<path d="M20.6313 232.753C20.6313 232.753 27.5079 236.757 30.2383 240.565C32.7664 244.179 36.8114 250.526 36.8114 250.526L41.4632 262.733" stroke="white" stroke-width="0.484257" stroke-miterlimit="10" stroke-linecap="round"/>
<path d="M45.9126 265.076C45.9126 265.076 35.5978 243.397 33.6764 239.101C31.755 234.804 23.8672 228.359 22.1481 223.965C20.429 219.57 19.3166 216.445 21.1369 214.004C22.9571 211.563 27.71 209.61 30.7438 211.074C33.5753 212.442 37.3169 216.543 38.9349 218.594C40.2496 220.254 48.643 249.647 47.9351 256.483L49.5531 265.174L45.9126 265.076Z" fill="#E9EDFC"/>
<path d="M27.71 219.082C27.71 219.082 33.6764 226.504 35.4966 230.8C37.5191 235.683 39.5416 244.96 39.2383 243.495L45.4069 263.612" stroke="white" stroke-width="0.484257" stroke-miterlimit="10" stroke-linecap="round"/>
<path d="M40.2498 264.978C40.2498 264.978 31.1485 254.92 26.699 252.967C22.2495 251.014 17.1932 248.866 12.8448 246.717C8.49639 244.569 3.33899 241.054 4.14799 238.905C4.957 236.757 5.96825 235.878 9.10314 235.487C11.8335 234.999 14.665 235.097 17.3954 235.683C19.4179 236.171 38.4295 247.303 43.2836 260.486L45.5083 265.076L40.2498 264.978Z" fill="#E9EDFC"/>
<path d="M12.5415 240.76C12.5415 240.76 20.4293 243.299 24.3732 245.838C27.3058 247.987 30.1373 250.233 32.8677 252.772L41.5645 265.076" stroke="white" stroke-width="0.484257" stroke-miterlimit="10" stroke-linecap="round"/>
<path d="M64.014 265.174C64.014 265.174 72.3063 260.291 76.6547 259.803C81.0031 259.315 86.0594 258.924 90.5089 258.338C94.9584 257.752 100.419 256.092 100.318 253.944C100.217 251.796 99.7113 250.721 97.082 249.452C94.8573 248.28 92.4303 247.499 89.9021 247.206C87.9808 247.011 68.2613 251.405 59.969 261.854L56.6318 265.272L64.014 265.174Z" fill="#BAC4F6"/>
<path d="M92.531 252.968C92.531 252.968 84.9465 252.87 80.8004 254.042C77.5644 255.018 74.4295 256.288 71.3957 257.753L60.373 264.881" fill="#BAC4F6"/>
<path d="M92.531 252.968C92.531 252.968 84.9465 252.87 80.8004 254.042C77.5644 255.018 74.4295 256.288 71.3957 257.753L60.373 264.881" stroke="white" stroke-width="0.484257" stroke-miterlimit="10" stroke-linecap="round"/>
<path d="M55.3177 264.881C55.3177 264.881 64.9246 253.749 68.6663 250.624C72.4079 247.499 76.7563 243.886 80.3968 240.663C84.0374 237.441 88.588 232.753 86.6666 230.8C84.7452 228.847 83.4306 227.578 79.8912 227.968C77.1608 228.164 74.6327 229.042 72.3068 230.41C70.3854 231.484 52.9918 245.643 50.4637 261.854L47.9355 265.174L55.3177 264.881Z" fill="#BAC4F6"/>
<path d="M77.8684 234.609C77.8684 234.609 70.3851 238.417 67.4524 242.03C64.7221 245.448 60.2725 251.6 60.2725 251.6L55.3174 263.221" stroke="white" stroke-width="0.484257" stroke-miterlimit="10" stroke-linecap="round"/>
<path d="M50.5645 265.467C50.5645 265.467 61.7894 244.765 63.8119 240.663C65.8344 236.562 74.4301 230.41 76.3515 226.211C78.2729 222.012 79.4864 218.984 77.4639 216.738C75.4414 214.492 70.284 212.539 67.0479 213.906C63.9131 215.176 59.9692 219.082 58.1489 221.133C56.7331 222.695 47.6319 250.819 48.3397 257.362L46.6206 265.662L50.5645 265.467Z" fill="#E9EDFC"/>
<path d="M49.4521 265.174C49.4521 265.174 50.3622 244.96 52.4859 238.417C53.9016 234.023 55.3174 226.699 57.2388 222.597C59.1601 218.496 56.2275 213.027 54.3061 210.684C52.3847 208.34 47.2273 208.828 43.8902 210.196C40.7553 211.465 39.0362 215.664 38.6317 217.91C38.3283 219.961 45.7104 244.276 44.9014 253.26L45.5082 265.369L49.4521 265.174Z" fill="#BAC4F6"/>
<path d="M70.2839 221.523C70.2839 221.523 63.913 228.554 61.8905 232.753C59.6658 237.441 57.5421 246.327 57.8455 244.862L50.5645 264.588" stroke="white" stroke-width="0.484257" stroke-miterlimit="10" stroke-linecap="round"/>
<path d="M56.7324 265.272C56.7324 265.272 66.6427 255.702 71.3956 253.846C76.1485 251.991 81.7104 249.94 86.3621 247.89C91.0139 245.839 96.6769 242.519 95.7668 240.468C94.8567 238.417 93.8454 237.636 90.4072 237.245C87.4745 236.855 84.4408 236.855 81.5081 237.441C79.2834 237.929 58.7549 248.475 53.4963 261.073L51.0693 265.369L56.7324 265.272Z" fill="#E9EDFC"/>
<path d="M86.5648 242.226C86.5648 242.226 78.0703 244.569 73.823 247.011C70.587 248.964 67.5532 251.21 64.6206 253.553L55.0137 263.904" stroke="white" stroke-width="0.484257" stroke-miterlimit="10" stroke-linecap="round"/>
<path d="M47.4292 214.395C47.4292 214.395 49.1483 231.679 48.1371 236.367C47.7326 238.32 47.9348 250.526 47.9348 250.526L47.5303 264.002" stroke="white" stroke-width="0.484257" stroke-miterlimit="10" stroke-linecap="round"/>
<path d="M47.834 101.508L122.869 102.875L124.386 108.051L46.9238 106.098L47.834 101.508Z" fill="#BAC4F6"/>
<path d="M416.84 114.105L416.233 256.482L509.876 256.678C509.876 256.678 510.584 181.681 506.842 109.906L417.042 108.636L416.84 114.105Z" fill="#BAC4F6"/>
<path d="M328.659 132.562L326.232 256.873H406.223L405.717 132.562H328.659Z" fill="#BAC4F6"/>
<path d="M212.467 205.508L327.548 206.094L326.233 256.874L212.871 256.776L212.467 205.508Z" fill="#BAC4F6"/>
<path d="M202.96 133.831L203.264 257.166C203.264 257.166 203.972 264.881 211.657 265.271C219.343 265.662 521.91 265.76 521.91 265.76C521.91 265.76 524.641 257.557 523.528 257.264C522.416 256.971 212.871 256.971 212.871 256.971C212.871 256.971 212.972 252.576 212.972 249.842C212.972 246.717 212.77 130.12 212.77 130.12C209.736 131.585 206.399 132.854 202.96 133.831Z" fill="white"/>
<path d="M209.634 146.038L515.741 147.893L517.359 154.241L209.634 155.705V146.038Z" fill="white"/>
<path d="M295.996 50.045V257.068L304.086 257.654V44.6741L295.996 50.045Z" fill="white"/>
<path d="M442.223 8.44556L442.021 257.069L449.504 256.483L450.718 13.3282L442.223 8.44556Z" fill="white"/>
<path d="M304.085 44.6743L478.83 45.7484L473.774 36.9597L314.096 36.8621L304.085 44.6743Z" fill="white"/>
<path d="M333.513 85.4931C343.343 85.4931 351.312 77.7983 351.312 68.3062C351.312 58.8142 343.343 51.1194 333.513 51.1194C323.684 51.1194 315.715 58.8142 315.715 68.3062C315.715 77.7983 323.684 85.4931 333.513 85.4931Z" fill="white"/>
<path d="M350.806 85.0048C357.229 85.0048 362.436 79.9769 362.436 73.7747C362.436 67.5725 357.229 62.5447 350.806 62.5447C344.383 62.5447 339.177 67.5725 339.177 73.7747C339.177 79.9769 344.383 85.0048 350.806 85.0048Z" fill="white"/>
<path d="M468.314 101.606C478.311 101.606 486.415 93.7796 486.415 84.1258C486.415 74.472 478.311 66.646 468.314 66.646C458.317 66.646 450.212 74.472 450.212 84.1258C450.212 93.7796 458.317 101.606 468.314 101.606Z" fill="white"/>
<path d="M449.605 97.7972C456.14 97.7972 461.437 92.6819 461.437 86.3719C461.437 80.0618 456.14 74.9465 449.605 74.9465C443.071 74.9465 437.773 80.0618 437.773 86.3719C437.773 92.6819 443.071 97.7972 449.605 97.7972Z" fill="white"/>
<path d="M447.689 301.455C446.476 296.475 446.071 290.03 445.262 289.932H444.352L435.656 290.03C435.656 290.03 433.835 298.037 432.925 301.357C432.824 301.553 432.723 302.138 432.521 302.529C432.318 303.115 432.318 303.701 432.318 304.287C432.521 307.314 433.734 309.951 436.465 311.22C439.599 312.685 441.925 314.15 445.161 311.22C448.498 308.291 448.903 306.435 447.689 301.455Z" fill="#4B44BE"/>
<path d="M420.284 290.713L409.261 291.299C409.261 291.299 404.913 298.623 398.542 300.283C392.576 301.943 382.665 305.947 387.115 308.291C390.351 310.146 411.486 308.486 416.643 308.877C420.486 309.169 421.599 306.923 421.194 301.943C420.891 298.135 420.284 290.713 420.284 290.713Z" fill="#4B44BE"/>
<path d="M407.138 158.296C407.138 158.296 399.756 216.79 399.25 220.599C398.745 224.407 401.778 243.938 401.778 247.648C401.778 251.359 408.958 291.299 408.958 291.299L420.385 290.811C420.385 290.811 418.06 232.024 418.363 229.192C418.666 226.36 431.105 192.279 431.105 192.279C431.105 192.279 432.015 201.264 432.015 204.193C432.015 207.123 435.453 290.225 435.453 290.225H445.465L459.622 167.769L459.42 165.425L407.138 158.296Z" fill="url(#paint0_linear_106_84)"/>
<path d="M440.813 45.2144C440.813 45.2144 429.79 49.3158 427.363 50.2923C424.936 51.2688 423.52 54.1984 423.52 54.1984C423.52 54.1984 422.307 53.5148 422.307 55.4679C422.307 57.4209 423.318 61.9129 424.127 63.1824C425.442 65.1355 426.554 67.1862 427.666 69.2369C428.678 71.2876 428.273 75.5843 427.262 76.1702C426.251 76.7561 407.644 92.9665 407.644 92.9665L392.272 138.766L394.295 153.218L397.43 167.475C397.43 167.475 396.823 168.55 398.037 169.721C399.351 170.893 404.913 179.78 404.913 179.78L406.835 166.694L400.565 147.359L398.34 131.051L413.104 101.951L464.173 110.739L469.735 142.476L459.42 169.526L457.6 182.709L466.296 175.385C466.802 174.995 467.813 172.944 468.218 171.87L473.375 157.808L477.218 135.348C477.218 135.348 444.959 79.1975 443.341 75.8773C442.633 74.4125 443.442 70.7017 443.846 68.9439C444.251 67.2838 445.06 65.1355 445.869 64.5496C447.082 63.2801 447.689 61.4247 447.993 59.7646C447.993 58.5928 448.498 54.0031 447.285 55.0773C447.083 55.3702 446.172 54.0031 445.768 52.1477C445.06 49.2181 443.037 46.9721 440.813 45.2144Z" fill="url(#paint1_linear_106_84)"/>
<path d="M436.667 91.0137C435.858 91.6972 434.644 91.5996 433.835 90.916C433.228 90.0371 432.723 89.1583 432.318 88.2794C431.509 86.717 425.239 77.7329 425.239 77.7329C425.239 77.7329 410.273 81.4437 407.846 82.9085C405.419 84.4709 403.194 86.6193 402.385 89.3536C401.576 92.0878 390.048 124.606 389.441 126.657C388.834 128.61 385.902 131.832 387.317 139.742C388.733 147.75 396.52 168.257 397.329 168.452C398.138 168.647 406.43 164.741 406.43 164.741C406.43 164.741 399.857 139.254 399.857 136.715C399.857 134.176 405.722 126.95 408.149 122.067C410.475 117.185 412.295 112.888 413.104 110.739C413.913 108.591 406.026 153.023 406.026 153.023C406.026 153.023 405.823 161.128 407.441 161.909C408.958 162.593 426.554 169.136 430.599 170.601C431.004 170.796 431.509 170.503 431.711 170.112L434.341 162.886C434.341 162.788 434.442 162.691 434.543 162.788C434.644 162.788 434.644 162.886 434.644 162.886L437.071 170.698C437.172 171.089 437.678 171.284 438.082 171.284L459.824 166.792C459.824 166.792 459.521 128.122 459.925 121.579C460.229 115.232 459.42 111.716 460.633 113.474C461.948 115.329 467.409 132.809 467.409 135.739C467.409 138.668 461.24 164.351 461.24 164.351L469.33 168.745C469.33 168.745 480.353 140.524 480.858 136.813C481.465 133.102 481.667 131.149 479.847 127.438C478.027 123.727 468.015 89.9395 468.015 89.9395C468.015 89.9395 467.004 85.8381 459.622 83.6897C452.24 81.5414 446.779 78.4165 445.465 78.5141C444.15 78.6118 440.105 86.0334 438.285 88.2794C437.476 89.2559 437.678 89.6465 436.667 91.0137Z" fill="url(#paint2_linear_106_84)"/>
<path d="M440.711 45.3123C440.711 45.3123 428.374 49.7067 425.846 51.4644C423.925 52.8315 423.52 54.101 423.52 54.101C423.52 54.101 422.205 53.5151 422.307 55.3705C422.408 57.2259 420.79 52.5386 420.385 50.9761C420.082 49.5113 419.981 45.3123 423.318 42.1874C426.655 39.0625 430.397 36.8165 433.43 37.0118C436.464 37.2071 439.093 38.086 441.52 40.332C443.947 42.578 444.554 42.4804 445.06 42.6757C445.565 42.871 448.094 45.5076 448.397 48.3395C448.7 51.1714 447.79 55.3705 447.79 55.3705C447.79 55.3705 447.183 54.7846 446.577 55.1752C445.97 55.6635 445.768 52.4409 443.644 48.6325C442.228 45.8982 440.711 45.3123 440.711 45.3123Z" fill="url(#paint3_linear_106_84)"/>
<path opacity="0.07" d="M432.924 186.323C431.509 190.327 426.048 198.041 422.407 202.728C418.767 207.416 407.744 217.181 408.452 229.192C409.16 241.106 416.643 271.866 416.643 274.698C416.643 277.433 413.812 290.518 411.688 294.522C409.564 298.526 408.553 305.752 409.666 305.752C411.587 305.654 413.711 305.459 415.632 304.971C417.452 304.58 419.272 304.189 420.992 303.603C421.699 303.311 421.902 300.967 421.902 300.967C422.003 299.99 421.801 299.014 421.598 298.135C421.093 296.67 420.688 295.108 420.486 293.643C420.081 282.413 418.969 256.34 419.272 254.582C419.677 251.164 416.845 233.977 419.475 225.579C422.003 216.986 432.924 186.323 432.924 186.323Z" fill="black"/>
<path opacity="0.07" d="M406.329 164.937L404.408 178.999C404.408 178.999 406.329 181.928 406.835 179.487C407.442 177.046 411.385 172.456 408.857 169.136C406.531 165.816 406.329 164.937 406.329 164.937Z" fill="black"/>
<path opacity="0.07" d="M459.622 168.843L459.016 175.581L458.207 182.026C458.207 182.026 455.375 183.979 455.476 181.44C455.577 178.901 450.825 175.093 454.364 172.554C457.903 170.015 459.622 168.843 459.622 168.843Z" fill="black"/>
<path opacity="0.07" d="M425.138 77.9284C425.644 77.8307 422.812 78.5143 425.34 77.7331C429.689 76.3659 427.869 68.4561 427.869 68.4561C427.869 68.4561 428.273 71.3856 432.419 72.5575C436.565 73.7293 437.577 72.8504 431.408 75.6823C425.239 78.5143 428.475 79.3931 428.88 83.0063" fill="black"/>
<path opacity="0.07" d="M412.801 113.669L405.925 153.999C405.925 153.999 406.026 161.226 407.341 162.202C408.655 163.179 413.105 163.96 414.015 164.643C415.026 165.327 425.644 168.745 422.813 162.983C422.206 161.714 407.846 153.999 414.217 145.797C420.588 137.691 419.476 126.461 416.442 118.551C414.622 113.962 413.711 109.079 414.015 104.197L412.801 113.669Z" fill="black"/>
<path d="M146.144 183.196C145.841 183.196 145.639 183.392 145.639 183.685C145.639 185.149 145.942 188.762 149.077 188.762C152.717 188.762 338.586 188.665 349.811 188.665C350.216 188.665 350.822 187.981 351.227 187.493C351.732 186.907 352.541 185.931 352.946 183.88C353.047 183.392 352.744 183.001 352.238 182.903C352.137 182.903 352.137 182.903 352.036 182.903L146.144 183.196Z" fill="url(#paint4_linear_106_84)"/>
<path d="M159.492 188.763C159.492 188.763 159.189 192.669 162.526 192.669C165.762 192.669 329.079 192.376 338.889 192.278C339.192 192.278 339.597 192.181 339.9 191.985C340.507 191.497 341.518 190.52 341.821 188.567L159.492 188.763Z" fill="url(#paint5_linear_106_84)"/>
<path d="M308.854 192.181H310.775L330.596 309.755L328.978 309.852L308.854 192.181Z" fill="url(#paint6_linear_106_84)"/>
<path d="M202.067 192.473H199.842L175.572 309.949L177.494 310.047L202.067 192.473Z" fill="url(#paint7_linear_106_84)"/>
<path d="M216.223 192.473H213.999L189.729 301.454L191.549 301.551L216.223 192.473Z" fill="url(#paint8_linear_106_84)"/>
<path d="M292.877 191.985H295.001L318.058 300.868L316.237 300.966L292.877 191.985Z" fill="url(#paint9_linear_106_84)"/>
<path d="M203.381 185.638L254.955 183.587L262.64 148.823L210.257 149.311L202.471 185.54" fill="url(#paint10_linear_106_84)"/>
<path d="M233.213 171.478C234.944 171.478 236.348 170.035 236.348 168.255C236.348 166.476 234.944 165.033 233.213 165.033C231.482 165.033 230.078 166.476 230.078 168.255C230.078 170.035 231.482 171.478 233.213 171.478Z" fill="white"/>
<path d="M202.976 183.001H174.863C174.661 183.001 174.56 183.099 174.459 183.294L174.054 184.954C174.054 185.15 174.155 185.345 174.358 185.345C174.358 185.345 174.358 185.345 174.459 185.345L202.47 185.638C202.673 185.638 202.774 185.54 202.875 185.345L203.381 183.489C203.381 183.294 203.279 183.099 202.976 183.001Z" fill="url(#paint11_linear_106_84)"/>
<path d="M209.449 148.334L261.832 147.944C261.933 147.944 261.933 147.944 262.034 148.042L262.742 148.823L210.561 149.213C210.46 149.213 210.359 149.311 210.359 149.409L203.583 185.345C203.583 185.442 203.482 185.54 203.381 185.54H202.876C202.774 185.54 202.673 185.442 202.673 185.345L209.145 148.725C209.044 148.53 209.145 148.334 209.449 148.334Z" fill="url(#paint12_linear_106_84)"/>
<path d="M300.359 167.182C299.955 167.084 299.449 166.986 299.044 166.889C298.134 166.693 297.022 166.986 296.415 167.67C296.011 168.158 295.707 168.842 295.606 169.525C295.202 171.576 295.91 173.724 297.528 175.091C298.64 176.166 299.955 177.142 301.269 177.923C301.674 178.119 301.977 178.509 301.977 178.9C302.382 180.365 302.887 181.829 303.494 183.197C303.595 183.392 303.696 183.392 303.797 183.49C306.528 184.271 309.359 184.271 312.09 183.587C312.696 183.392 312.696 183.392 313 182.806C314.112 179.974 314.921 177.044 315.326 174.115C315.73 171.381 315.932 168.646 315.831 165.912C315.831 165.424 315.831 165.424 315.326 165.228C314.517 164.936 313.607 164.838 312.696 164.838C310.472 164.643 308.146 164.643 305.82 164.643C304.404 164.643 302.887 164.838 301.471 165.131C301.168 165.228 300.865 165.326 300.561 165.424C300.46 165.521 300.359 165.521 300.359 165.717C300.359 166.205 300.359 166.693 300.359 167.182ZM301.269 176.654C298.842 175.482 297.325 173.724 297.123 171.088C297.022 170.502 297.123 170.013 297.325 169.33C297.528 168.842 297.831 168.451 298.337 168.353C299.146 168.256 299.853 168.646 300.258 169.33V170.111C300.359 171.771 300.561 173.431 300.865 174.994C300.966 175.58 301.067 176.068 301.269 176.654Z" fill="url(#paint13_linear_106_84)"/>
<path d="M300.46 165.424C300.46 165.424 307.943 163.275 315.831 165.424C315.831 165.424 309.258 167.963 300.46 165.424Z" fill="#4A41BC"/>
<path d="M312.898 148.921C313.403 151.557 312.594 154.292 310.774 156.44C310.066 157.416 309.257 158.198 308.549 159.174C307.437 160.639 306.628 162.299 306.325 164.154C306.325 164.35 306.122 164.74 306.122 164.936C306.122 164.447 305.92 164.154 305.92 163.666C305.819 161.518 306.628 159.467 308.044 157.709C308.651 156.928 309.358 156.147 309.965 155.463C311.482 153.706 312.493 151.753 312.898 149.604" fill="url(#paint14_linear_106_84)"/>
<path d="M303.19 162.103C303.19 161.81 303.089 161.615 302.987 161.42C302.886 159.662 303.493 157.904 304.808 156.537C305.516 155.756 306.122 154.975 306.628 154.194C307.336 153.217 307.74 152.045 307.943 150.873C308.044 150.678 308.044 150.092 308.044 150.483L308.145 150.58C308.246 150.873 308.246 151.264 308.347 151.557C308.347 153.119 307.74 154.682 306.729 155.951L304.909 158.1C304.201 158.978 303.796 159.955 303.493 161.029C303.392 161.127 303.392 161.322 303.392 161.42C303.392 161.615 303.291 161.81 303.19 162.103Z" fill="url(#paint15_linear_106_84)"/>
<path d="M311.381 163.178C311.381 163.08 311.279 162.689 311.178 162.299C311.077 160.541 311.684 158.783 312.999 157.416C313.706 156.635 314.313 155.854 314.819 155.072C315.527 154.096 315.931 152.924 316.133 151.752C316.235 151.655 316.336 150.971 316.235 151.459V151.557C316.336 151.85 316.336 152.143 316.437 152.436C316.437 153.998 315.83 155.561 314.819 156.83L312.999 158.978C312.291 159.857 311.886 160.834 311.583 161.908C311.482 162.006 311.482 162.201 311.482 162.299C311.482 162.592 311.381 162.787 311.279 163.08L311.381 163.178Z" fill="url(#paint16_linear_106_84)"/>
</g>
<defs>
<linearGradient id="paint0_linear_106_84" x1="399.171" y1="224.823" x2="459.681" y2="224.823" gradientUnits="userSpaceOnUse">
<stop stop-color="#4B45BD"/>
<stop offset="1" stop-color="#58CAEA"/>
</linearGradient>
<linearGradient id="paint1_linear_106_84" x1="392.262" y1="113.916" x2="477.293" y2="113.916" gradientUnits="userSpaceOnUse">
<stop stop-color="#F87B58"/>
<stop offset="0.41" stop-color="#F89453"/>
<stop offset="0.71" stop-color="#F8C548"/>
<stop offset="1" stop-color="#F89C51"/>
</linearGradient>
<linearGradient id="paint2_linear_106_84" x1="386.895" y1="124.722" x2="481.379" y2="124.722" gradientUnits="userSpaceOnUse">
<stop stop-color="#E5A4ED"/>
<stop offset="1" stop-color="#7A5BF5"/>
</linearGradient>
<linearGradient id="paint3_linear_106_84" x1="420.292" y1="46.4057" x2="448.703" y2="46.4057" gradientUnits="userSpaceOnUse">
<stop stop-color="#4B45BD"/>
<stop offset="1" stop-color="#58CAEA"/>
</linearGradient>
<linearGradient id="paint4_linear_106_84" x1="145.568" y1="185.849" x2="352.875" y2="185.849" gradientUnits="userSpaceOnUse">
<stop stop-color="#E5A4ED"/>
<stop offset="1" stop-color="#7A5BF5"/>
</linearGradient>
<linearGradient id="paint5_linear_106_84" x1="145.567" y1="185.849" x2="352.874" y2="185.849" gradientUnits="userSpaceOnUse">
<stop stop-color="#E5A4ED"/>
<stop offset="1" stop-color="#7A5BF5"/>
</linearGradient>
<linearGradient id="paint6_linear_106_84" x1="308.86" y1="251.025" x2="330.557" y2="251.025" gradientUnits="userSpaceOnUse">
<stop stop-color="#E5A4ED"/>
<stop offset="1" stop-color="#7A5BF5"/>
</linearGradient>
<linearGradient id="paint7_linear_106_84" x1="203.173" y1="251.283" x2="176.699" y2="251.283" gradientUnits="userSpaceOnUse">
<stop stop-color="#E5A4ED"/>
<stop offset="1" stop-color="#7A5BF5"/>
</linearGradient>
<linearGradient id="paint8_linear_106_84" x1="217.266" y1="246.996" x2="190.796" y2="246.996" gradientUnits="userSpaceOnUse">
<stop stop-color="#E5A4ED"/>
<stop offset="1" stop-color="#7A5BF5"/>
</linearGradient>
<linearGradient id="paint9_linear_106_84" x1="292.706" y1="246.496" x2="317.907" y2="246.496" gradientUnits="userSpaceOnUse">
<stop stop-color="#E5A4ED"/>
<stop offset="1" stop-color="#7A5BF5"/>
</linearGradient>
<linearGradient id="paint10_linear_106_84" x1="202.45" y1="167.23" x2="262.608" y2="167.23" gradientUnits="userSpaceOnUse">
<stop stop-color="#CD94EF"/>
<stop offset="1" stop-color="#7D5DF5"/>
</linearGradient>
<linearGradient id="paint11_linear_106_84" x1="174.048" y1="184.3" x2="203.318" y2="184.3" gradientUnits="userSpaceOnUse">
<stop stop-color="#7A5BF5"/>
<stop offset="1" stop-color="#8260F4"/>
</linearGradient>
<linearGradient id="paint12_linear_106_84" x1="202.467" y1="166.778" x2="262.625" y2="166.778" gradientUnits="userSpaceOnUse">
<stop stop-color="#7A5BF5"/>
<stop offset="0.71" stop-color="#8260F4"/>
</linearGradient>
<linearGradient id="paint13_linear_106_84" x1="319.071" y1="170.18" x2="285.981" y2="182.086" gradientUnits="userSpaceOnUse">
<stop stop-color="#59CFEE"/>
<stop offset="1" stop-color="#4A41BC"/>
</linearGradient>
<linearGradient id="paint14_linear_106_84" x1="308.917" y1="158.275" x2="306.087" y2="164.748" gradientUnits="userSpaceOnUse">
<stop stop-color="#59CFEE"/>
<stop offset="1" stop-color="#4A41BC"/>
</linearGradient>
<linearGradient id="paint15_linear_106_84" x1="305.363" y1="156.999" x2="303.614" y2="161.924" gradientUnits="userSpaceOnUse">
<stop stop-color="#59CFEE"/>
<stop offset="1" stop-color="#4A41BC"/>
</linearGradient>
<linearGradient id="paint16_linear_106_84" x1="313.437" y1="157.949" x2="311.667" y2="162.94" gradientUnits="userSpaceOnUse">
<stop stop-color="#59CFEE"/>
<stop offset="1" stop-color="#4A41BC"/>
</linearGradient>
<clipPath id="clip0_106_84">
<rect width="572" height="312" fill="white"/>
</clipPath>
</defs>
</svg>
