<svg width="60" height="60" viewBox="0 0 60 60" fill="none" xmlns="http://www.w3.org/2000/svg">
<rect x="1.5" y="1.5" width="57" height="57" rx="14.5" stroke="#4C1D95" stroke-width="3"/>
<path d="M37.75 14.5H22.25C17.9698 14.5 14.5 17.9698 14.5 22.25V37.75C14.5 42.0302 17.9698 45.5 22.25 45.5H37.75C42.0302 45.5 45.5 42.0302 45.5 37.75V22.25C45.5 17.9698 42.0302 14.5 37.75 14.5Z" stroke="#4C1D95" stroke-width="3" stroke-linecap="round" stroke-linejoin="round"/>
<path d="M36.1999 29.0235C36.3912 30.3135 36.1708 31.6309 35.5702 32.7885C34.9696 33.946 34.0193 34.8847 32.8544 35.471C31.6896 36.0573 30.3695 36.2614 29.082 36.0542C27.7944 35.847 26.605 35.2391 25.6829 34.317C24.7608 33.3949 24.1529 32.2054 23.9457 30.9179C23.7385 29.6304 23.9426 28.3103 24.5289 27.1455C25.1152 25.9806 26.0539 25.0303 27.2114 24.4297C28.369 23.829 29.6864 23.6087 30.9764 23.8C32.2922 23.9951 33.5104 24.6082 34.451 25.5489C35.3916 26.4895 36.0048 27.7076 36.1999 29.0235Z" stroke="#4C1D95" stroke-width="3" stroke-linecap="round" stroke-linejoin="round"/>
<path d="M38.525 21.475H38.5405" stroke="#4C1D95" stroke-width="3" stroke-linecap="round" stroke-linejoin="round"/>
</svg>
