<svg width="60" height="60" viewBox="0 0 60 60" fill="none" xmlns="http://www.w3.org/2000/svg">
<rect x="1.5" y="1.5" width="57" height="57" rx="14.5" stroke="#4C1D95" stroke-width="3"/>
<path d="M36.1999 23.8C38.6664 23.8 41.0319 24.7799 42.776 26.524C44.5201 28.268 45.4999 30.6335 45.4999 33.1V43.95H39.2999V33.1C39.2999 32.2779 38.9733 31.4894 38.3919 30.908C37.8106 30.3267 37.0221 30 36.1999 30C35.3777 30 34.5892 30.3267 34.0079 30.908C33.4265 31.4894 33.0999 32.2779 33.0999 33.1V43.95H26.8999V33.1C26.8999 30.6335 27.8797 28.268 29.6238 26.524C31.3679 24.7799 33.7334 23.8 36.1999 23.8V23.8Z" stroke="#4C1D95" stroke-width="3" stroke-linecap="round" stroke-linejoin="round"/>
<path d="M20.7 25.35H14.5V43.95H20.7V25.35Z" stroke="#4C1D95" stroke-width="3" stroke-linecap="round" stroke-linejoin="round"/>
<path d="M17.6 20.7C19.3121 20.7 20.7 19.3121 20.7 17.6C20.7 15.8879 19.3121 14.5 17.6 14.5C15.8879 14.5 14.5 15.8879 14.5 17.6C14.5 19.3121 15.8879 20.7 17.6 20.7Z" stroke="#4C1D95" stroke-width="3" stroke-linecap="round" stroke-linejoin="round"/>
<path d="M16 3H44V-3H16V3ZM57 16V44H63V16H57ZM44 57H16V63H44V57ZM3 44V16H-3V44H3ZM16 57C8.8203 57 3 51.1797 3 44H-3C-3 54.4934 5.50659 63 16 63V57ZM57 44C57 51.1797 51.1797 57 44 57V63C54.4934 63 63 54.4934 63 44H57ZM44 3C51.1797 3 57 8.8203 57 16H63C63 5.50659 54.4934 -3 44 -3V3ZM16 -3C5.50659 -3 -3 5.50659 -3 16H3C3 8.8203 8.8203 3 16 3V-3Z" fill="black"/>
</svg>
