<svg width="136" height="24" viewBox="0 0 136 24" fill="none" xmlns="http://www.w3.org/2000/svg">
<path d="M5.976 20V7.712H0.552V3.488H16.68V7.712H11.28V20H5.976ZM19.9363 20V3.488H30.2803C31.5123 3.488 32.5363 3.736 33.3523 4.232C34.1843 4.728 34.8083 5.376 35.2243 6.176C35.6403 6.976 35.8483 7.84 35.8483 8.768C35.8483 9.824 35.6003 10.768 35.1043 11.6C34.6083 12.416 33.9363 13.072 33.0883 13.568L36.3283 20H30.3763L27.8563 14.456H25.2403V20H19.9363ZM25.2403 10.784H28.9603C29.3763 10.784 29.7283 10.624 30.0163 10.304C30.3043 9.968 30.4483 9.528 30.4483 8.984C30.4483 8.648 30.3843 8.352 30.2563 8.096C30.1283 7.84 29.9523 7.64 29.7283 7.496C29.5043 7.336 29.2483 7.256 28.9603 7.256H25.2403V10.784ZM47.664 20.288C45.792 20.288 44.192 19.968 42.864 19.328C41.536 18.688 40.52 17.736 39.816 16.472C39.112 15.192 38.76 13.616 38.76 11.744C38.76 9.856 39.112 8.28 39.816 7.016C40.52 5.752 41.536 4.8 42.864 4.16C44.192 3.52 45.792 3.2 47.664 3.2C49.552 3.2 51.16 3.52 52.488 4.16C53.816 4.8 54.832 5.752 55.536 7.016C56.24 8.28 56.592 9.856 56.592 11.744C56.592 13.616 56.24 15.192 55.536 16.472C54.832 17.736 53.816 18.688 52.488 19.328C51.16 19.968 49.552 20.288 47.664 20.288ZM47.664 16.328C48.24 16.328 48.744 16.24 49.176 16.064C49.624 15.872 49.992 15.608 50.28 15.272C50.584 14.936 50.808 14.536 50.952 14.072C51.096 13.592 51.168 13.072 51.168 12.512V10.976C51.168 10.416 51.096 9.904 50.952 9.44C50.808 8.96 50.584 8.552 50.28 8.216C49.992 7.88 49.624 7.624 49.176 7.448C48.744 7.256 48.24 7.16 47.664 7.16C47.088 7.16 46.576 7.256 46.128 7.448C45.696 7.624 45.336 7.88 45.048 8.216C44.76 8.552 44.544 8.96 44.4 9.44C44.256 9.904 44.184 10.416 44.184 10.976V12.512C44.184 13.072 44.256 13.592 44.4 14.072C44.544 14.536 44.76 14.936 45.048 15.272C45.336 15.608 45.696 15.872 46.128 16.064C46.576 16.24 47.088 16.328 47.664 16.328ZM64.5291 20V13.592L57.9771 3.488H64.0731L67.2411 8.984H67.3371L70.5051 3.488H76.2891L69.8331 13.592V20H64.5291ZM75.4125 20L81.4365 3.488H87.6045L93.6285 20H88.0125L87.3165 17.672H81.5325L80.8365 20H75.4125ZM82.6365 13.976H86.2365L85.4445 11.336C85.3805 11.144 85.3085 10.912 85.2285 10.64C85.1485 10.368 85.0685 10.08 84.9885 9.776C84.9085 9.472 84.8285 9.176 84.7485 8.888C84.6685 8.584 84.5965 8.32 84.5325 8.096H84.3405C84.2765 8.384 84.1885 8.712 84.0765 9.08C83.9805 9.448 83.8765 9.832 83.7645 10.232C83.6525 10.616 83.5405 10.984 83.4285 11.336L82.6365 13.976ZM96.4682 20V3.488H100.98L106.116 9.416C106.26 9.576 106.452 9.808 106.692 10.112C106.932 10.416 107.172 10.728 107.412 11.048C107.668 11.352 107.86 11.6 107.988 11.792L108.108 11.744C108.092 11.296 108.084 10.856 108.084 10.424C108.084 9.976 108.084 9.64 108.084 9.416V3.488H112.908V20H108.42L102.636 13.4C102.364 13.08 102.132 12.792 101.94 12.536C101.748 12.264 101.564 12.008 101.388 11.768L101.268 11.816C101.284 12.12 101.292 12.424 101.292 12.728C101.292 13.032 101.292 13.256 101.292 13.4V20H96.4682ZM125.508 20.288C123.636 20.288 122.036 19.968 120.708 19.328C119.38 18.688 118.364 17.736 117.66 16.472C116.956 15.192 116.604 13.616 116.604 11.744C116.604 9.856 116.956 8.28 117.66 7.016C118.364 5.752 119.38 4.8 120.708 4.16C122.036 3.52 123.636 3.2 125.508 3.2C127.396 3.2 129.004 3.52 130.332 4.16C131.66 4.8 132.676 5.752 133.38 7.016C134.084 8.28 134.436 9.856 134.436 11.744C134.436 13.616 134.084 15.192 133.38 16.472C132.676 17.736 131.66 18.688 130.332 19.328C129.004 19.968 127.396 20.288 125.508 20.288ZM125.508 16.328C126.084 16.328 126.588 16.24 127.02 16.064C127.468 15.872 127.836 15.608 128.124 15.272C128.428 14.936 128.652 14.536 128.796 14.072C128.94 13.592 129.012 13.072 129.012 12.512V10.976C129.012 10.416 128.94 9.904 128.796 9.44C128.652 8.96 128.428 8.552 128.124 8.216C127.836 7.88 127.468 7.624 127.02 7.448C126.588 7.256 126.084 7.16 125.508 7.16C124.932 7.16 124.42 7.256 123.972 7.448C123.54 7.624 123.18 7.88 122.892 8.216C122.604 8.552 122.388 8.96 122.244 9.44C122.1 9.904 122.028 10.416 122.028 10.976V12.512C122.028 13.072 122.1 13.592 122.244 14.072C122.388 14.536 122.604 14.936 122.892 15.272C123.18 15.608 123.54 15.872 123.972 16.064C124.42 16.24 124.932 16.328 125.508 16.328Z" fill="#7C3AED"/>
</svg>
