<svg width="56" height="13" viewBox="0 0 56 13" fill="none" xmlns="http://www.w3.org/2000/svg">
<path d="M7.625 3.42045C7.56439 2.88258 7.31439 2.46591 6.875 2.17045C6.43561 1.87121 5.88258 1.72159 5.21591 1.72159C4.73864 1.72159 4.32576 1.79735 3.97727 1.94886C3.62879 2.09659 3.35795 2.30114 3.16477 2.5625C2.97538 2.82008 2.88068 3.11364 2.88068 3.44318C2.88068 3.7197 2.94508 3.95833 3.07386 4.15909C3.20644 4.35985 3.37879 4.52841 3.59091 4.66477C3.80682 4.79735 4.03788 4.90909 4.28409 5C4.5303 5.08712 4.76705 5.15909 4.99432 5.21591L6.13068 5.51136C6.50189 5.60227 6.88258 5.72538 7.27273 5.88068C7.66288 6.03598 8.02462 6.24053 8.35795 6.49432C8.69129 6.74811 8.96023 7.0625 9.16477 7.4375C9.37311 7.8125 9.47727 8.26136 9.47727 8.78409C9.47727 9.44318 9.30682 10.0284 8.96591 10.5398C8.62879 11.0511 8.13826 11.4545 7.49432 11.75C6.85417 12.0455 6.07955 12.1932 5.17045 12.1932C4.29924 12.1932 3.54545 12.0549 2.90909 11.7784C2.27273 11.5019 1.77462 11.1098 1.41477 10.6023C1.05492 10.0909 0.856061 9.48485 0.818182 8.78409H2.57955C2.61364 9.20455 2.75 9.55492 2.98864 9.83523C3.23106 10.1117 3.53977 10.3182 3.91477 10.4545C4.29356 10.5871 4.70833 10.6534 5.15909 10.6534C5.6553 10.6534 6.09659 10.5758 6.48295 10.4205C6.87311 10.2614 7.17992 10.0417 7.40341 9.76136C7.62689 9.47727 7.73864 9.14583 7.73864 8.76705C7.73864 8.42235 7.64015 8.14015 7.44318 7.92045C7.25 7.70076 6.98674 7.51894 6.65341 7.375C6.32386 7.23106 5.95076 7.10417 5.53409 6.99432L4.15909 6.61932C3.22727 6.36553 2.48864 5.99242 1.94318 5.5C1.40152 5.00758 1.13068 4.35606 1.13068 3.54545C1.13068 2.875 1.3125 2.28977 1.67614 1.78977C2.03977 1.28977 2.5322 0.901515 3.15341 0.625C3.77462 0.344697 4.47538 0.204545 5.25568 0.204545C6.04356 0.204545 6.73864 0.342803 7.34091 0.619318C7.94697 0.895833 8.42424 1.27652 8.77273 1.76136C9.12121 2.24242 9.30303 2.79545 9.31818 3.42045H7.625ZM22.6432 6.18182C22.6432 7.42424 22.416 8.49242 21.9614 9.38636C21.5069 10.2765 20.8838 10.9621 20.0921 11.4432C19.3042 11.9205 18.4084 12.1591 17.4046 12.1591C16.397 12.1591 15.4974 11.9205 14.7057 11.4432C13.9179 10.9621 13.2966 10.2746 12.8421 9.38068C12.3876 8.48674 12.1603 7.42045 12.1603 6.18182C12.1603 4.93939 12.3876 3.87311 12.8421 2.98295C13.2966 2.08901 13.9179 1.40341 14.7057 0.926136C15.4974 0.445075 16.397 0.204545 17.4046 0.204545C18.4084 0.204545 19.3042 0.445075 20.0921 0.926136C20.8838 1.40341 21.5069 2.08901 21.9614 2.98295C22.416 3.87311 22.6432 4.93939 22.6432 6.18182ZM20.9046 6.18182C20.9046 5.23485 20.7512 4.4375 20.4444 3.78977C20.1413 3.13826 19.7247 2.64583 19.1944 2.3125C18.6679 1.97538 18.0713 1.80682 17.4046 1.80682C16.7341 1.80682 16.1357 1.97538 15.6091 2.3125C15.0826 2.64583 14.666 3.13826 14.3591 3.78977C14.0561 4.4375 13.9046 5.23485 13.9046 6.18182C13.9046 7.12879 14.0561 7.92803 14.3591 8.57955C14.666 9.22727 15.0826 9.7197 15.6091 10.0568C16.1357 10.3902 16.7341 10.5568 17.4046 10.5568C18.0713 10.5568 18.6679 10.3902 19.1944 10.0568C19.7247 9.7197 20.1413 9.22727 20.4444 8.57955C20.7512 7.92803 20.9046 7.12879 20.9046 6.18182ZM25.7922 12V0.363636H30.0535C30.8793 0.363636 31.563 0.5 32.1047 0.772727C32.6463 1.04167 33.0516 1.4072 33.3206 1.86932C33.5895 2.32765 33.724 2.8447 33.724 3.42045C33.724 3.9053 33.635 4.31439 33.4569 4.64773C33.2789 4.97727 33.0403 5.24242 32.741 5.44318C32.4456 5.64015 32.1198 5.78409 31.7638 5.875V5.98864C32.1501 6.00758 32.527 6.13258 32.8944 6.36364C33.2656 6.59091 33.5725 6.91477 33.8149 7.33523C34.0573 7.75568 34.1785 8.26705 34.1785 8.86932C34.1785 9.46402 34.0384 9.99811 33.7581 10.4716C33.4816 10.9413 33.0535 11.3144 32.474 11.5909C31.8944 11.8636 31.1539 12 30.2524 12H25.7922ZM27.5478 10.4943H30.0819C30.9228 10.4943 31.5251 10.3314 31.8888 10.0057C32.2524 9.67992 32.4342 9.27273 32.4342 8.78409C32.4342 8.41667 32.3414 8.07955 32.1558 7.77273C31.9702 7.46591 31.705 7.22159 31.3603 7.03977C31.0194 6.85795 30.6141 6.76705 30.1444 6.76705H27.5478V10.4943ZM27.5478 5.39773H29.9001C30.2941 5.39773 30.6482 5.32197 30.9626 5.17045C31.2808 5.01894 31.5327 4.80682 31.7183 4.53409C31.9077 4.25758 32.0024 3.93182 32.0024 3.55682C32.0024 3.07576 31.8338 2.67235 31.4967 2.34659C31.1596 2.02083 30.6425 1.85795 29.9456 1.85795H27.5478V5.39773ZM37.2209 12V0.363636H41.3686C42.2702 0.363636 43.0183 0.518939 43.613 0.829545C44.2114 1.14015 44.6584 1.57008 44.9539 2.11932C45.2493 2.66477 45.397 3.29545 45.397 4.01136C45.397 4.72348 45.2474 5.35038 44.9482 5.89205C44.6527 6.42992 44.2058 6.84848 43.6073 7.14773C43.0126 7.44697 42.2645 7.59659 41.363 7.59659H38.2209V6.08523H41.2039C41.772 6.08523 42.2342 6.00379 42.5902 5.84091C42.9501 5.67803 43.2133 5.44129 43.38 5.13068C43.5467 4.82008 43.63 4.44697 43.63 4.01136C43.63 3.57197 43.5448 3.19129 43.3743 2.86932C43.2077 2.54735 42.9444 2.30114 42.5845 2.13068C42.2285 1.95644 41.7607 1.86932 41.1811 1.86932H38.9766V12H37.2209ZM42.9652 6.75L45.8402 12H43.8402L41.022 6.75H42.9652ZM48.4934 12V0.363636H55.7889V1.875H50.2491V5.42045H55.4082V6.92614H50.2491V10.4886H55.857V12H48.4934Z" fill="white"/>
</svg>
